<?xml version="1.0" standalone="no"?>
<!DOCTYPE svg PUBLIC "-//W3C//DTD SVG 1.1//EN" "http://www.w3.org/Graphics/SVG/1.1/DTD/svg11.dtd" >
<!--
2013-9-30: Created.
-->
<svg>
<metadata>
Created by iconfont
</metadata>
<defs>

<font id="iconfont" horiz-adv-x="1024" >
  <font-face
    font-family="iconfont"
    font-weight="500"
    font-stretch="normal"
    units-per-em="1024"
    ascent="896"
    descent="-128"
  />
    <missing-glyph />
    
    <glyph glyph-name="alarm" unicode="&#58881;" d="M512-115.2c-256 0-460.8 204.8-460.8 460.8s204.8 460.8 460.8 460.8 460.8-204.8 460.8-460.8-204.8-460.8-460.8-460.8zM512 748.8c-224 0-403.2-179.2-403.2-403.2s179.2-403.2 403.2-403.2 403.2 179.2 403.2 403.2c-6.4 224-185.6 403.2-403.2 403.2zM345.6 38.4h-6.4c-108.8 64-179.2 179.2-179.2 307.2 0 6.4 6.4 12.8 12.8 12.8s12.8-6.4 12.8-12.8c0-115.2 64-217.6 160-275.2 6.4-6.4 12.8-12.8 6.4-19.2 6.4-6.4 0-12.8-6.4-12.8zM480 0h-19.2c-6.4 0-12.8 6.4-12.8 19.2 0 6.4 6.4 12.8 19.2 12.8h19.2c6.4 0 12.8-6.4 12.8-19.2-6.4-12.8-12.8-12.8-19.2-12.8zM128 556.8c-6.4 0-12.8 0-19.2 6.4-51.2 32-83.2 89.6-83.2 153.6 0 96 83.2 179.2 179.2 179.2 70.4 0 134.4-44.8 166.4-108.8 6.4-12.8 0-32-19.2-38.4-12.8-6.4-32 0-38.4 19.2-19.2 44.8-57.6 70.4-108.8 70.4-64 0-115.2-51.2-115.2-115.2 0-38.4 19.2-76.8 51.2-96 12.8-6.4 19.2-25.6 6.4-44.8 0-25.6-6.4-25.6-19.2-25.6zM902.4 556.8c-12.8 0-19.2 6.4-25.6 12.8-6.4 12.8-6.4 32 6.4 44.8 32 19.2 51.2 57.6 51.2 96 0 64-51.2 115.2-115.2 115.2-44.8 0-89.6-25.6-108.8-70.4-6.4-12.8-25.6-25.6-38.4-19.2-12.8 6.4-25.6 25.6-19.2 38.4 25.6 64 89.6 108.8 166.4 108.8 96 0 179.2-83.2 179.2-179.2 0-64-32-115.2-83.2-153.6 0 6.4-6.4 6.4-12.8 6.4zM179.2-128c-6.4 0-12.8 0-19.2 6.4-12.8 12.8-19.2 32-6.4 44.8l70.4 89.6c12.8 12.8 32 19.2 44.8 6.4 12.8-12.8 19.2-32 6.4-44.8l-70.4-89.6c-6.4-6.4-12.8-12.8-25.6-12.8zM825.6-128c-6.4 0-19.2 6.4-25.6 12.8l-70.4 89.6c-12.8 12.8-6.4 32 6.4 44.8s32 6.4 44.8-6.4l70.4-89.6c12.8-12.8 6.4-32-6.4-44.8-6.4-6.4-12.8-6.4-19.2-6.4zM595.2 217.6c-6.4 0-19.2 0-19.2 6.4l-83.2 89.6c-6.4 6.4-6.4 12.8-6.4 19.2v243.2c0 19.2 12.8 32 32 32s32-12.8 32-32v-230.4l76.8-83.2c12.8-12.8 12.8-32 0-44.8h-32z"  horiz-adv-x="1024" />

    
    <glyph glyph-name="audio" unicode="&#58882;" d="M153.6 0c-6.4 0-6.4 0-12.8 6.4-19.2 19.2-25.6 38.4-25.6 64 0 6.4 6.4 12.8 12.8 12.8s12.8-6.4 12.8-12.8c0-12.8 6.4-32 19.2-38.4 6.4-6.4 6.4-12.8 0-19.2 0-6.4 0-12.8-6.4-12.8zM736 121.6c-6.4 0-6.4 0-12.8 6.4-19.2 19.2-25.6 38.4-25.6 64 0 6.4 6.4 12.8 12.8 12.8s12.8-6.4 12.8-12.8c0-12.8 6.4-32 19.2-38.4 6.4-6.4 6.4-12.8 0-19.2 0-12.8 0-12.8-6.4-12.8zM204.8-19.2h-6.4c-6.4 0-12.8 12.8-6.4 19.2 0 6.4 12.8 12.8 19.2 12.8h6.4c6.4 0 12.8-6.4 12.8-12.8-12.8-12.8-12.8-19.2-25.6-19.2zM800 12.8c-96 0-172.8 76.8-172.8 172.8 0 96 76.8 172.8 172.8 172.8 83.2 0 172.8-19.2 179.2-19.2 12.8 0 19.2-12.8 19.2-25.6 0-6.4 12.8-160-64-243.2-32-38.4-83.2-57.6-134.4-57.6z m0 288c-64 0-115.2-51.2-115.2-115.2s51.2-115.2 115.2-115.2c38.4 0 70.4 12.8 96 38.4 44.8 51.2 51.2 140.8 51.2 179.2-38.4 6.4-96 12.8-147.2 12.8zM966.4 281.6c-19.2 0-32 12.8-32 25.6v524.8c0 19.2 12.8 32 32 32s32-12.8 32-32v-524.8c0-12.8-12.8-25.6-32-25.6 6.4 0 6.4 0 0 0zM198.4-108.8c-96 0-172.8 76.8-172.8 172.8 0 96 76.8 172.8 172.8 172.8 83.2 0 172.8-19.2 179.2-19.2 12.8 0 19.2-12.8 25.6-25.6 0-6.4 12.8-160-64-243.2-38.4-38.4-83.2-57.6-140.8-57.6z m0 294.4c-64 0-115.2-51.2-115.2-115.2s51.2-115.2 115.2-115.2c38.4 0 70.4 12.8 96 38.4 44.8 51.2 51.2 140.8 51.2 179.2-32 0-96 12.8-147.2 12.8zM371.2 153.6c-19.2 0-32 12.8-32 25.6v537.6c0 19.2 12.8 32 32 32s32-12.8 32-32v-537.6c0-12.8-12.8-25.6-32-25.6zM371.2 704c-12.8 0-25.6 12.8-25.6 25.6s6.4 32 25.6 32l595.2 115.2c12.8 0 32-6.4 32-25.6 0-12.8-6.4-32-25.6-32l-601.6-115.2zM384 588.8c-12.8 0-25.6 12.8-25.6 25.6s6.4 32 25.6 32l582.4 108.8c12.8 0 32-6.4 32-25.6 0-12.8-6.4-32-25.6-32l-588.8-108.8z"  horiz-adv-x="1024" />

    
    <glyph glyph-name="back" unicode="&#58883;" d="M672-51.2c-32 0-57.6 12.8-76.8 32l-320 320c-19.2 19.2-32 51.2-32 83.2s12.8 57.6 32 83.2l320 320c19.2 19.2 51.2 32 76.8 32s57.6-12.8 76.8-32c44.8-44.8 44.8-115.2 0-160l-243.2-243.2 243.2-243.2c44.8-44.8 44.8-115.2 0-160-19.2-19.2-44.8-32-76.8-32z m0 819.2c-12.8 0-32-6.4-44.8-19.2l-313.6-320c-12.8-12.8-12.8-25.6-12.8-44.8 0-19.2 0-32 12.8-44.8l320-320c12.8-12.8 25.6-19.2 38.4-19.2 12.8 0 32 6.4 38.4 19.2 25.6 25.6 25.6 57.6 0 83.2l-262.4 262.4c-12.8 12.8-12.8 25.6 0 38.4l262.4 262.4c25.6 25.6 25.6 57.6 0 83.2-6.4 12.8-19.2 19.2-38.4 19.2z"  horiz-adv-x="1024" />

    
    <glyph glyph-name="bigone" unicode="&#58884;" d="M1008.099379-19.875776c0-57.242236-44.521739-108.124224-108.124224-108.124224H257.590062c-57.242236 0-108.124224 44.521739-108.124223 108.124224v667.826087c0 57.242236 44.521739 108.124224 108.124223 108.124223h642.385093c57.242236 0 108.124224-44.521739 108.124224-108.124223v-667.826087z m-63.602485 667.826087c0 25.440994-19.080745 44.521739-44.521739 44.521739H257.590062c-25.440994 0-44.521739-19.080745-44.521739-44.521739v-667.826087c0-25.440994 19.080745-44.521739 44.521739-44.52174h642.385093c25.440994 0 44.521739 19.080745 44.521739 44.52174v667.826087zM34.981366 298.136646c-19.080745 0-31.801242 12.720497-31.801242 31.801242v457.937888c0 57.242236 44.521739 108.124224 101.763975 108.124224h502.459628c19.080745 0 31.801242-12.720497 31.801242-31.801242s-12.720497-31.801242-31.801242-31.801242h-502.459628c-25.440994 0-38.161491-19.080745-38.16149-44.52174v-457.937888c0-19.080745-19.080745-31.801242-31.801243-31.801242zM804.571429-7.15528h-216.248448c-6.360248 0-12.720497 6.360248-12.720497 12.720497s6.360248 12.720497 12.720497 12.720497h216.248448c6.360248 0 31.801242 0 31.801242 44.521739v63.602485c0 6.360248 6.360248 12.720497 12.720497 12.720497s12.720497-6.360248 12.720497-12.720497v-63.602485c6.360248-63.602484-38.161491-69.962733-57.242236-69.962733zM855.453416 158.21118c-6.360248 0-12.720497 6.360248-12.720497 12.720497v12.720497c0 6.360248 6.360248 12.720497 12.720497 12.720497s12.720497-6.360248 12.720497-12.720497v-12.720497c0-6.360248-6.360248-12.720497-12.720497-12.720497z"  horiz-adv-x="1024" />

    
    <glyph glyph-name="blocks" unicode="&#58885;" d="M1011.2 518.4c0-57.6-51.2-108.8-108.8-108.8h-787.2c-57.6 0-108.8 51.2-108.8 108.8v268.8c0 57.6 51.2 108.8 108.8 108.8h787.2c57.6 0 108.8-51.2 108.8-108.8v-268.8z m-64 268.8c0 25.6-19.2 44.8-44.8 44.8h-787.2c-25.6 0-44.8-19.2-44.8-44.8v-268.8c0-25.6 19.2-44.8 44.8-44.8h787.2c25.6 0 44.8 19.2 44.8 44.8v268.8zM128 646.4c-6.4 0-12.8 6.4-12.8 12.8v25.6c0 38.4 19.2 83.2 64 83.2h102.4c6.4 0 12.8-6.4 12.8-12.8s-6.4-12.8-12.8-12.8h-102.4c-25.6 0-32-25.6-32-51.2v-25.6c-6.4-12.8-12.8-19.2-19.2-19.2zM115.2 588.8c-6.4 0-6.4 0-12.8 6.4 0 0-6.4 6.4-6.4 12.8s0 6.4 6.4 12.8 19.2 6.4 19.2 0c0 0 6.4-6.4 6.4-12.8s0-6.4-6.4-12.8c0-6.4-6.4-6.4-6.4-6.4zM678.4-19.2c0-57.6-51.2-108.8-108.8-108.8h-460.8c-57.6 0-108.8 51.2-108.8 108.8v268.8c0 57.6 51.2 108.8 108.8 108.8h460.8c57.6 0 108.8-51.2 108.8-108.8v-268.8z m-64 268.8c0 25.6-19.2 44.8-44.8 44.8h-460.8c-25.6 0-44.8-19.2-44.8-44.8v-268.8c0-25.6 19.2-44.8 44.8-44.8h460.8c25.6 0 44.8 19.2 44.8 44.8v268.8zM1024-19.2c0-57.6-51.2-108.8-108.8-108.8h-83.2c-57.6 0-108.8 51.2-108.8 108.8v268.8c0 57.6 51.2 108.8 108.8 108.8h83.2c57.6 0 108.8-51.2 108.8-108.8v-268.8z m-64 268.8c0 25.6-19.2 44.8-44.8 44.8h-83.2c-25.6 0-44.8-19.2-44.8-44.8v-268.8c0-25.6 19.2-44.8 44.8-44.8h83.2c25.6 0 44.8 19.2 44.8 44.8v268.8z"  horiz-adv-x="1024" />

    
    <glyph glyph-name="backward" unicode="&#58886;" d="M512-128c-281.6 0-512 230.4-512 512s230.4 512 512 512 512-230.4 512-512-230.4-512-512-512z m0 960c-249.6 0-448-198.4-448-448s198.4-448 448-448 448 198.4 448 448-198.4 448-448 448zM889.6 371.2c-6.4 0-12.8 6.4-12.8 12.8 0 166.4-108.8 307.2-268.8 352-6.4 0-12.8 12.8-12.8 19.2 0 6.4 12.8 12.8 19.2 12.8 172.8-44.8 294.4-204.8 294.4-384 0-6.4-6.4-12.8-19.2-12.8zM531.2 748.8h-19.2c-6.4 0-12.8 6.4-12.8 12.8s6.4 12.8 12.8 12.8h19.2c6.4 0 12.8-6.4 12.8-19.2 6.4 0 0-6.4-12.8-6.4zM428.8 243.2c-6.4 0-19.2 0-25.6 6.4l-166.4 102.4c-12.8 6.4-19.2 19.2-19.2 32s6.4 25.6 25.6 38.4l166.4 102.4c6.4 6.4 25.6 6.4 32 6.4 25.6 0 44.8-19.2 44.8-38.4v-204.8c0-12.8-12.8-25.6-19.2-32-12.8-12.8-25.6-12.8-38.4-12.8z m6.4 256h-12.8l-166.4-102.4-6.4-6.4s0-6.4 6.4-6.4l166.4-102.4H441.6l6.4 6.4v204.8l-12.8 6.4zM665.6 243.2c-6.4 0-12.8 0-25.6 6.4l-160 102.4c-12.8 6.4-19.2 19.2-19.2 32s6.4 25.6 25.6 32l166.4 102.4c32 19.2 64 0 64-32v-204.8c0-12.8-6.4-19.2-12.8-32-12.8-6.4-25.6-6.4-38.4-6.4z m6.4 256h-12.8l-160-102.4-6.4-6.4s0-6.4 6.4-6.4l160-102.4h12.8l6.4 6.4v204.8c6.4 0 0 6.4-6.4 6.4z"  horiz-adv-x="1024" />

    
    <glyph glyph-name="bag" unicode="&#58887;" d="M755.2-76.8h-486.4c-51.2 0-96 44.8-96 96l25.6 518.4c0 51.2 44.8 96 96 96h435.2c51.2 0 96-44.8 96-96l25.6-518.4c0-51.2-38.4-96-96-96z m-531.2 96c0-19.2 19.2-38.4 38.4-38.4h486.4c19.2 0 38.4 19.2 38.4 38.4l-25.6 518.4c0 25.6-19.2 38.4-38.4 38.4h-435.2c-25.6 0-38.4-19.2-38.4-38.4l-25.6-518.4zM307.2 288c-6.4 0-12.8 6.4-12.8 19.2v12.8c0 6.4 6.4 12.8 12.8 12.8s12.8-6.4 12.8-12.8v-12.8c0-12.8 0-19.2-12.8-19.2zM294.4 38.4c-6.4 0-12.8 6.4-12.8 12.8l12.8 211.2c0 6.4 6.4 12.8 12.8 12.8s12.8-6.4 12.8-12.8l-12.8-211.2c0-12.8-6.4-12.8-12.8-12.8zM633.6 576c-12.8 0-25.6 12.8-25.6 25.6v153.6c0 19.2-19.2 32-44.8 32h-102.4c-12.8 0-38.4 0-38.4-32v-153.6c0-12.8-12.8-25.6-25.6-25.6s-25.6 12.8-25.6 25.6v153.6c0 51.2 38.4 83.2 96 83.2h102.4c57.6 0 102.4-32 102.4-83.2v-153.6c-6.4-12.8-19.2-25.6-38.4-25.6z"  horiz-adv-x="1024" />

    
    <glyph glyph-name="award" unicode="&#58888;" d="M512 332.8c-89.6 0-166.4 76.8-166.4 166.4 0 89.6 76.8 166.4 166.4 166.4 89.6 0 166.4-76.8 166.4-166.4 0-89.6-76.8-166.4-166.4-166.4z m0 307.2c-76.8 0-140.8-64-140.8-140.8 0-76.8 64-140.8 140.8-140.8s140.8 64 140.8 140.8c0 76.8-64 140.8-140.8 140.8zM422.4 505.6c-6.4 0-12.8 6.4-12.8 12.8s0 12.8 6.4 25.6c0 6.4 6.4 12.8 19.2 12.8 6.4 0 12.8-6.4 12.8-19.2v-12.8c-12.8-12.8-19.2-19.2-25.6-19.2zM512 396.8c-44.8 0-83.2 25.6-96 70.4 0 6.4 0 12.8 6.4 19.2 6.4 0 12.8 0 19.2-6.4 12.8-32 38.4-51.2 70.4-51.2 6.4 0 12.8-6.4 12.8-12.8 0-12.8-6.4-19.2-12.8-19.2zM582.4 172.8c-12.8 0-25.6 6.4-32 12.8l-19.2 12.8c-6.4 6.4-25.6 6.4-38.4 0l-19.2-12.8c-12.8-6.4-25.6-12.8-32-12.8-25.6 0-44.8 12.8-57.6 32l-12.8 19.2c-6.4 6.4-19.2 19.2-32 19.2h-25.6c-19.2 0-38.4 6.4-51.2 19.2-12.8 12.8-19.2 32-19.2 44.8v19.2c0 12.8-6.4 25.6-19.2 32l-19.2 12.8c-12.8 6.4-25.6 25.6-32 38.4-6.4 19.2 0 38.4 6.4 51.2l12.8 19.2c6.4 6.4 6.4 25.6 0 38.4l-12.8 19.2c-12.8 12.8-12.8 32-6.4 51.2 6.4 19.2 19.2 32 32 38.4l19.2 12.8c6.4 6.4 19.2 19.2 19.2 32v19.2c0 19.2 6.4 32 19.2 44.8 12.8 12.8 32 19.2 51.2 19.2h19.2c12.8 0 25.6 6.4 32 19.2l12.8 19.2c12.8 19.2 32 32 57.6 32 12.8 0 25.6-6.4 32-12.8l19.2-12.8c6.4-6.4 25.6-6.4 38.4 0l19.2 12.8c12.8 6.4 19.2 12.8 32 12.8 25.6 0 44.8-12.8 57.6-32l12.8-19.2c6.4-6.4 19.2-19.2 32-19.2h25.6c19.2 0 38.4-6.4 51.2-19.2 12.8-12.8 19.2-32 19.2-44.8v-19.2c0-12.8 6.4-25.6 19.2-32l19.2-12.8c19.2-6.4 25.6-25.6 32-38.4 6.4-19.2 0-38.4-6.4-51.2l-12.8-19.2c-6.4-6.4-6.4-25.6 0-38.4l12.8-19.2c12.8-12.8 12.8-32 6.4-51.2-6.4-19.2-19.2-32-32-38.4l-19.2-12.8c-6.4-6.4-19.2-19.2-19.2-32v-19.2c0-19.2-6.4-32-19.2-44.8-12.8-12.8-25.6-19.2-44.8-19.2h-19.2c-12.8 0-25.6-6.4-32-12.8l-12.8-19.2c-19.2-25.6-38.4-38.4-64-38.4z m-70.4 83.2c19.2 0 32-6.4 44.8-12.8l19.2-12.8h6.4s6.4 0 6.4 6.4l12.8 19.2c12.8 25.6 51.2 44.8 83.2 44.8h19.2c6.4 0 6.4 0 6.4 6.4v25.6c0 32 19.2 70.4 44.8 83.2l19.2 12.8 6.4 6.4v6.4l-12.8 19.2c-19.2 25.6-19.2 70.4 0 96l12.8 19.2v6.4s0 6.4-6.4 6.4l-19.2 12.8c-32 12.8-51.2 51.2-44.8 83.2v19.2 6.4h-32c-32 0-70.4 19.2-83.2 44.8l-12.8 19.2c0 6.4-6.4 6.4-6.4 6.4h-6.4l-19.2-12.8c-25.6-19.2-70.4-19.2-96 0l-19.2 12.8h-6.4s-6.4 0-6.4-6.4l-12.8-19.2c-12.8-32-51.2-51.2-83.2-51.2h-25.6v-25.6c0-32-19.2-70.4-44.8-83.2l-19.2-12.8-6.4-6.4v-6.4l12.8-19.2c19.2-25.6 19.2-70.4 0-96l-12.8-19.2v-6.4s0-6.4 6.4-6.4l19.2-12.8c32-12.8 51.2-51.2 44.8-83.2v-25.6h32c32 0 70.4-19.2 83.2-44.8l12.8-19.2c0-6.4 6.4-6.4 6.4-6.4h6.4l19.2 12.8c19.2 6.4 32 12.8 51.2 12.8zM422.4-32c-6.4 0-12.8 0-19.2 6.4l-64 44.8-76.8-19.2c-6.4 0-19.2 0-25.6 6.4-6.4 6.4-12.8 19.2-6.4 25.6l44.8 249.6c0 6.4 6.4 12.8 12.8 19.2 6.4 6.4 19.2 6.4 25.6 0h25.6c32 0 70.4-19.2 83.2-44.8l12.8-19.2c0-6.4 6.4-6.4 12.8-6.4 6.4 6.4 19.2 6.4 32 0 6.4-6.4 12.8-19.2 12.8-25.6l-38.4-204.8c0-6.4-6.4-19.2-19.2-19.2-6.4-12.8-12.8-12.8-12.8-12.8z m-76.8 108.8c6.4 0 12.8 0 19.2-6.4l38.4-25.6 25.6 128c-19.2 6.4-32 19.2-38.4 32l-12.8 19.2c-6.4 6.4-19.2 19.2-32 19.2h-19.2l-32-179.2 44.8 12.8h6.4zM544-57.6h-12.8l-19.2 19.2-44.8 256c0 12.8 6.4 25.6 19.2 32 25.6 6.4 51.2 0 70.4-12.8l19.2-12.8h6.4s6.4 0 6.4 6.4l12.8 19.2c12.8 25.6 51.2 44.8 83.2 44.8h19.2c6.4 0 6.4 6.4 6.4 6.4 6.4 12.8 19.2 19.2 25.6 19.2 12.8 0 25.6-12.8 25.6-19.2l51.2-275.2v-6.4c0-12.8-12.8-25.6-25.6-25.6h-6.4l-121.6 32-102.4-76.8c0-6.4-6.4-6.4-12.8-6.4z m-12.8 249.6l32-179.2 76.8 57.6c6.4 6.4 12.8 6.4 25.6 6.4l89.6-25.6-32 192c-6.4 0-6.4-6.4-12.8-6.4h-25.6c-12.8 0-25.6-6.4-32-12.8l-12.8-19.2c-12.8-19.2-32-32-57.6-32-12.8 0-25.6 6.4-32 12.8l-19.2 6.4z"  horiz-adv-x="1024" />

    
    <glyph glyph-name="battery" unicode="&#58889;" d="M377.6-76.8c-32 0-57.6 19.2-96 57.6l-179.2 179.2c-70.4 70.4-89.6 115.2-6.4 192l403.2 384c12.8 12.8 25.6 12.8 38.4 0 12.8-12.8 12.8-25.6 0-38.4l-396.8-384c-51.2-51.2-51.2-57.6 6.4-115.2l179.2-179.2c19.2-19.2 44.8-38.4 57.6-38.4 12.8 0 38.4 19.2 57.6 38.4l403.2 384c12.8 12.8 25.6 12.8 38.4 0 12.8-12.8 12.8-25.6 0-38.4l-396.8-384c-51.2-32-76.8-57.6-108.8-57.6zM492.8 19.2c-6.4 0-12.8 0-19.2 6.4-12.8 12.8-12.8 25.6 0 38.4l396.8 384c51.2 51.2 51.2 57.6-6.4 115.2l-179.2 179.2c-57.6 57.6-57.6 57.6-108.8 0l-403.2-384c-12.8-12.8-25.6-12.8-38.4 0-12.8 12.8-12.8 25.6 0 38.4l396.8 384c76.8 76.8 115.2 76.8 192 0l179.2-179.2c38.4-38.4 57.6-64 57.6-96s-19.2-64-51.2-96l-403.2-384c6.4-6.4 0-6.4-12.8-6.4zM889.6 576c-6.4 0-12.8 0-19.2 6.4-12.8 12.8-12.8 25.6 0 38.4l6.4 6.4c57.6 57.6 57.6 70.4 6.4 121.6-51.2 51.2-70.4 51.2-121.6 0l-6.4-6.4c-12.8-12.8-25.6-12.8-38.4 0-12.8 12.8-12.8 25.6 0 38.4l6.4 6.4c76.8 76.8 128 76.8 198.4 0 83.2-83.2 64-128-6.4-198.4l-6.4-6.4c0-6.4-12.8-6.4-19.2-6.4zM275.2 345.6c-6.4 0-6.4 0-12.8 6.4s-6.4 12.8 0 19.2l12.8 12.8c6.4 6.4 12.8 6.4 19.2 0 6.4-6.4 6.4-12.8 0-19.2l-12.8-12.8s0-6.4-6.4-6.4zM332.8 403.2c-6.4 0-6.4 0-12.8 6.4s-6.4 12.8 0 19.2l89.6 89.6c6.4 6.4 12.8 6.4 19.2 0 6.4-6.4 6.4-12.8 0-19.2l-89.6-89.6s0-6.4-6.4-6.4zM652.8 505.6c-6.4 0-6.4 0-12.8 6.4s-6.4 12.8 0 19.2l83.2 83.2c6.4 6.4 12.8 6.4 19.2 0 6.4-6.4 6.4-12.8 0-19.2l-83.2-83.2s0-6.4-6.4-6.4zM736 505.6c-6.4 0-6.4 0-12.8 6.4l-83.2 83.2c-6.4 6.4-6.4 12.8 0 19.2 6.4 6.4 12.8 6.4 19.2 0l83.2-83.2c6.4-6.4 6.4-12.8 0-19.2 0-6.4 0-6.4-6.4-6.4zM332.8 102.4c-6.4 0-6.4 0-12.8 6.4l-83.2 83.2c-6.4 6.4-6.4 12.8 0 19.2 6.4 6.4 12.8 6.4 19.2 0l83.2-83.2c6.4-6.4 6.4-12.8 0-19.2 0-6.4 0-6.4-6.4-6.4z"  horiz-adv-x="1024" />

    
    <glyph glyph-name="ball" unicode="&#58890;" d="M512-76.8c-121.6 0-236.8 51.2-326.4 134.4-179.2 179.2-179.2 473.6 0 652.8 89.6 89.6 204.8 134.4 326.4 134.4s236.8-51.2 326.4-134.4c89.6-89.6 134.4-204.8 134.4-326.4 0-121.6-51.2-236.8-134.4-326.4-89.6-89.6-204.8-134.4-326.4-134.4z m0 864c-108.8 0-211.2-44.8-288-121.6-160-160-160-416 0-569.6 76.8-76.8 179.2-121.6 288-121.6s211.2 44.8 288 121.6c76.8 76.8 121.6 179.2 121.6 288 0 108.8-44.8 211.2-121.6 288-76.8 76.8-179.2 115.2-288 115.2zM115.2 428.8s-6.4 0 0 0c-12.8 0-25.6 6.4-38.4 6.4-6.4 0-12.8 6.4-12.8 12.8s6.4 12.8 12.8 12.8c12.8 0 25.6 0 38.4-6.4 6.4 0 12.8-6.4 12.8-19.2 0-6.4-6.4-6.4-12.8-6.4zM550.4 44.8c-6.4 0-12.8 6.4-12.8 12.8-6.4 25.6-19.2 44.8-25.6 70.4-6.4 6.4 0 12.8 6.4 19.2 6.4 6.4 12.8 0 19.2-6.4 12.8-25.6 19.2-51.2 25.6-70.4 6.4-12.8 0-19.2-12.8-25.6 6.4 0 0 0 0 0z m-64 140.8c-6.4 0-6.4 0-12.8 6.4-12.8 19.2-25.6 38.4-44.8 57.6-6.4 6.4-6.4 12.8 0 19.2 6.4 6.4 12.8 6.4 19.2 0 19.2-19.2 32-38.4 44.8-64 6.4-6.4 0-12.8-6.4-19.2 6.4 0 0 0 0 0z m-102.4 115.2c-6.4 0-6.4 0-6.4 6.4-19.2 19.2-38.4 32-57.6 44.8-6.4 6.4-6.4 12.8-6.4 19.2 6.4 6.4 12.8 6.4 19.2 6.4 19.2-12.8 44.8-32 64-44.8 6.4-6.4 6.4-12.8 0-19.2 0-12.8-6.4-12.8-12.8-12.8z m-128 83.2c-25.6 12.8-51.2 19.2-76.8 25.6-6.4 0-12.8 12.8-6.4 19.2 0 6.4 12.8 12.8 19.2 6.4 25.6-6.4 51.2-19.2 70.4-25.6 6.4-6.4 12.8-12.8 6.4-19.2 0-6.4-6.4-6.4-12.8-6.4zM576-64c-6.4 0-12.8 6.4-12.8 12.8 0 12.8 0 25.6-6.4 32 0 6.4 6.4 12.8 12.8 19.2 6.4 0 12.8-6.4 19.2-12.8 0-12.8 6.4-25.6 6.4-38.4-6.4-6.4-12.8-12.8-19.2-12.8zM448 761.6c-6.4 0-12.8 6.4-12.8 12.8 0 12.8-6.4 25.6-6.4 38.4 0 6.4 6.4 12.8 12.8 12.8s12.8-6.4 12.8-12.8c0-12.8 0-25.6 6.4-32 0-12.8 0-19.2-12.8-19.2zM825.6 320c-32 6.4-51.2 19.2-76.8 32-6.4 6.4-12.8 12.8-6.4 19.2 6.4 6.4 12.8 12.8 19.2 6.4 19.2-12.8 44.8-19.2 70.4-25.6 6.4 0 12.8-12.8 6.4-19.2 0-6.4-6.4-12.8-12.8-12.8z m-134.4 70.4h-6.4c-19.2 12.8-44.8 32-64 44.8-6.4 6.4-6.4 12.8 0 19.2 6.4 6.4 12.8 6.4 19.2 0 19.2-19.2 38.4-32 57.6-44.8 6.4-6.4 6.4-12.8 6.4-19.2h-12.8z m-115.2 96c-6.4 0-6.4 0-12.8 6.4-19.2 19.2-32 38.4-44.8 64-6.4 6.4 0 12.8 6.4 19.2 6.4 6.4 12.8 0 19.2-6.4 12.8-19.2 25.6-38.4 44.8-57.6 6.4-6.4 6.4-12.8 0-19.2-6.4-6.4-12.8-6.4-12.8-6.4z m-83.2 128c-6.4 0-12.8 0-12.8 6.4-12.8 25.6-19.2 51.2-25.6 70.4 0 6.4 0 12.8 6.4 19.2s12.8 0 19.2-6.4c6.4-25.6 19.2-44.8 25.6-70.4 0-6.4 0-12.8-12.8-19.2 6.4 0 0 0 0 0zM940.8 300.8s-6.4 0 0 0c-12.8 0-25.6 0-38.4 6.4-6.4 0-12.8 6.4-12.8 19.2 0 6.4 6.4 12.8 19.2 12.8 12.8 0 25.6-6.4 32-6.4 6.4 0 12.8-6.4 12.8-12.8 0-12.8-6.4-19.2-12.8-19.2z"  horiz-adv-x="1024" />

    
    <glyph glyph-name="bell" unicode="&#58891;" d="M537.6-89.6h-57.6c-115.2 0-128 44.8-128 140.8v12.8c0 12.8 12.8 25.6 25.6 25.6s25.6-12.8 25.6-25.6v-12.8c0-83.2 0-89.6 76.8-89.6h57.6c76.8 0 96 12.8 96 89.6v12.8c0 12.8 12.8 25.6 25.6 25.6s25.6-12.8 25.6-25.6v-12.8c6.4-102.4-38.4-140.8-147.2-140.8zM972.8 153.6c0-64-51.2-115.2-115.2-115.2h-684.8c-64 0-115.2 51.2-115.2 115.2v6.4c0 64 51.2 115.2 115.2 115.2h684.8c64 0 115.2-51.2 115.2-115.2v-6.4z m-57.6 6.4c0 32-25.6 57.6-57.6 57.6h-684.8c-32 0-57.6-25.6-57.6-57.6v-6.4c0-32 25.6-57.6 57.6-57.6h684.8c32 0 57.6 25.6 57.6 57.6v6.4zM844.8 224c-12.8 0-25.6 12.8-25.6 25.6v262.4c0 160-134.4 288-294.4 288h-19.2c-160 0-281.6-128-281.6-288v-262.4c0-12.8-12.8-25.6-25.6-25.6s-25.6 12.8-25.6 25.6v262.4c0 192 147.2 345.6 339.2 345.6h19.2c192 0 345.6-153.6 345.6-345.6v-262.4c-6.4-12.8-19.2-25.6-32-25.6zM755.2 460.8c-6.4 0-12.8 6.4-12.8 12.8 0 102.4-57.6 192-153.6 230.4-6.4 0-12.8 12.8-6.4 19.2 0 6.4 12.8 12.8 19.2 6.4 102.4-44.8 166.4-147.2 166.4-256 0-6.4-6.4-12.8-12.8-12.8zM512 723.2h-25.6c-6.4 0-12.8 6.4-12.8 12.8s6.4 12.8 12.8 12.8h25.6c6.4 0 12.8-6.4 12.8-12.8s-6.4-12.8-12.8-12.8z"  horiz-adv-x="1024" />

    
    <glyph glyph-name="bluetooth" unicode="&#58892;" d="M492.8-96c-19.2 0-32 12.8-32 32v896c0 19.2 12.8 32 32 32s32-12.8 32-32v-896c0-19.2-12.8-32-32-32zM166.4 134.4c-12.8 0-19.2 6.4-25.6 12.8-6.4 12.8-6.4 32 6.4 38.4l646.4 416-320 198.4c-12.8 6.4-19.2 25.6-6.4 38.4 6.4 12.8 25.6 19.2 38.4 6.4l358.4-224c6.4-6.4 12.8-12.8 12.8-25.6s-6.4-19.2-12.8-25.6l-684.8-441.6c0 6.4-6.4 6.4-12.8 6.4zM691.2 588.8h-6.4l-25.6 12.8c-6.4 6.4-6.4 12.8-6.4 19.2 6.4 6.4 12.8 6.4 19.2 6.4l25.6-12.8c6.4-6.4 6.4-12.8 6.4-19.2 0-6.4-6.4-6.4-12.8-6.4zM640 620.8h-6.4l-70.4 44.8c-6.4 6.4-6.4 12.8-6.4 19.2 6.4 6.4 12.8 6.4 19.2 6.4l70.4-44.8c6.4-6.4 6.4-12.8 6.4-19.2-6.4 0-12.8-6.4-12.8-6.4zM492.8-96c-12.8 0-19.2 6.4-25.6 12.8-6.4 12.8-6.4 32 6.4 38.4l320 204.8-646.4 416c-12.8 6.4-19.2 25.6-6.4 38.4 6.4 12.8 25.6 19.2 38.4 6.4l684.8-441.6c6.4-6.4 12.8-12.8 12.8-25.6s-6.4-19.2-12.8-25.6l-358.4-230.4c0 6.4-6.4 6.4-12.8 6.4z"  horiz-adv-x="1024" />

    
    <glyph glyph-name="cartridge" unicode="&#58893;" d="M992 128c0-57.6-44.8-102.4-102.4-102.4h-748.8c-57.6 0-102.4 44.8-102.4 102.4v518.4c0 57.6 44.8 102.4 102.4 102.4h748.8c57.6 0 102.4-44.8 102.4-102.4v-518.4z m-64 512c0 25.6-19.2 44.8-44.8 44.8h-748.8c-25.6 0-44.8-19.2-44.8-44.8v-518.4c0-25.6 19.2-44.8 44.8-44.8h748.8c25.6 0 44.8 19.2 44.8 44.8v518.4zM800 70.4c-6.4 0-12.8 6.4-12.8 12.8v38.4c0 32-25.6 64-57.6 64h-428.8c-32 0-57.6-32-57.6-64v-38.4c0-6.4-6.4-12.8-12.8-12.8s-12.8 6.4-12.8 12.8v38.4c0 51.2 38.4 96 83.2 96h428.8c44.8 0 89.6-44.8 89.6-96v-38.4c-6.4-6.4-12.8-12.8-19.2-12.8zM684.8 288h-352c-83.2 0-153.6 64-153.6 147.2 0 6.4 6.4 12.8 12.8 12.8s12.8-6.4 12.8-12.8c0-64 57.6-115.2 128-115.2h352c70.4 0 128 44.8 128 108.8v12.8c0 70.4-57.6 128-128 128h-352c-32 0-57.6-12.8-76.8-25.6-6.4-6.4-12.8 0-19.2 6.4-6.4 6.4-6.4 12.8 6.4 19.2 32 19.2 64 32 89.6 32h352c83.2 0 153.6-70.4 153.6-153.6v-12.8c6.4-83.2-64-147.2-153.6-147.2zM204.8 467.2c-6.4 0-6.4 0 0 0-12.8 6.4-19.2 12.8-12.8 19.2 0 6.4 6.4 12.8 6.4 19.2 6.4 6.4 12.8 12.8 19.2 6.4 6.4-6.4 12.8-12.8 6.4-19.2 0-6.4-6.4-12.8-6.4-12.8 0-6.4-6.4-12.8-12.8-12.8zM358.4 345.6c-51.2 0-89.6 38.4-89.6 89.6 0 51.2 38.4 89.6 89.6 89.6s89.6-38.4 89.6-89.6c0-51.2-38.4-89.6-89.6-89.6z m0 147.2c-32 0-57.6-25.6-57.6-57.6s25.6-57.6 57.6-57.6 57.6 25.6 57.6 57.6-25.6 57.6-57.6 57.6zM678.4 345.6c-51.2 0-89.6 38.4-89.6 89.6 0 51.2 38.4 89.6 89.6 89.6 51.2 0 89.6-38.4 89.6-89.6 0-51.2-38.4-89.6-89.6-89.6z m0 147.2c-32 0-57.6-25.6-57.6-57.6s25.6-57.6 57.6-57.6 57.6 25.6 57.6 57.6c6.4 32-19.2 57.6-57.6 57.6z"  horiz-adv-x="1024" />

    
    <glyph glyph-name="browser" unicode="&#58982;" d="M992 19.2c0-57.6-44.8-102.4-102.4-102.4h-748.8c-57.6 0-102.4 44.8-102.4 102.4v736c0 57.6 44.8 102.4 102.4 102.4h748.8c57.6 0 102.4-44.8 102.4-102.4v-736z m-64 729.6c0 25.6-19.2 44.8-44.8 44.8h-748.8c-25.6 0-44.8-19.2-44.8-44.8v-736c0-25.6 19.2-44.8 44.8-44.8h748.8c25.6 0 44.8 19.2 44.8 44.8v736zM953.6 633.6h-896c-6.4 0-12.8 6.4-12.8 12.8s6.4 12.8 12.8 12.8h896c6.4 0 12.8-6.4 12.8-12.8s-6.4-12.8-12.8-12.8zM160 704h-12.8c-6.4 0-12.8 6.4-12.8 12.8s6.4 12.8 12.8 12.8h12.8c6.4 0 12.8-6.4 12.8-12.8s0-12.8-12.8-12.8zM262.4 704h-12.8c-6.4 0-12.8 6.4-12.8 12.8s6.4 12.8 12.8 12.8h12.8c6.4 0 12.8-6.4 12.8-12.8s0-12.8-12.8-12.8zM364.8 704h-12.8c-6.4 0-12.8 6.4-12.8 12.8s6.4 12.8 12.8 12.8h12.8c6.4 0 12.8-6.4 12.8-12.8s0-12.8-12.8-12.8zM352 115.2c-6.4 0-6.4 0-12.8 6.4l-134.4 166.4c-6.4 6.4-6.4 12.8 0 19.2l83.2 102.4c6.4 6.4 12.8 6.4 19.2 0 6.4-6.4 6.4-12.8 0-19.2l-76.8-96 128-160c6.4-6.4 6.4-12.8 0-19.2h-6.4zM339.2 428.8c-6.4 0-6.4 0-6.4 6.4-6.4 6.4-6.4 12.8 0 19.2l12.8 19.2c6.4 6.4 12.8 6.4 19.2 0s6.4-12.8 0-19.2l-12.8-19.2c0-6.4-6.4-6.4-12.8-6.4zM672 115.2c-6.4 0-6.4 0-6.4 6.4-6.4 6.4-6.4 12.8 0 19.2l128 160-128 153.6c-6.4 6.4-6.4 12.8 0 19.2 6.4 6.4 12.8 6.4 19.2 0l134.4-166.4c6.4-6.4 6.4-12.8 0-19.2l-134.4-166.4c-6.4-6.4-6.4-6.4-12.8-6.4zM454.4 192c-6.4 0-6.4 0-6.4 6.4-6.4 6.4-6.4 12.8 0 19.2l134.4 166.4c6.4 6.4 12.8 6.4 19.2 0 6.4-6.4 6.4-12.8 0-19.2l-134.4-166.4c-6.4-6.4-12.8-6.4-12.8-6.4z"  horiz-adv-x="1024" />

    
    <glyph glyph-name="calendar" unicode="&#58983;" d="M979.2 0c0-57.6-44.8-102.4-102.4-102.4h-736c-57.6 0-102.4 44.8-102.4 102.4V646.4c0 57.6 44.8 102.4 102.4 102.4h736c57.6 0 102.4-44.8 102.4-102.4v-646.4z m-57.6 646.4c0 25.6-19.2 44.8-44.8 44.8h-736c-25.6 0-44.8-19.2-44.8-44.8v-646.4c0-25.6 19.2-44.8 44.8-44.8h736c25.6 0 44.8 19.2 44.8 44.8V646.4zM819.2 0h-89.6c-6.4 0-12.8 6.4-12.8 12.8s6.4 12.8 12.8 12.8h89.6c12.8 0 25.6 0 25.6 32 0 6.4 6.4 12.8 19.2 12.8s19.2-6.4 19.2-12.8v-6.4c-6.4-32-25.6-51.2-64-51.2zM864 115.2c-6.4 0-6.4 0-12.8 6.4 0 0-6.4 6.4-6.4 12.8s0 6.4 6.4 12.8 12.8 6.4 19.2 0c0 0 6.4-6.4 6.4-12.8s0-6.4-6.4-12.8c0-6.4-6.4-6.4-6.4-6.4zM262.4 339.2h-12.8c-6.4 0-12.8 6.4-12.8 12.8s6.4 12.8 12.8 12.8h12.8c6.4 0 12.8-6.4 12.8-12.8s-6.4-12.8-12.8-12.8zM364.8 339.2h-12.8c-6.4 0-12.8 6.4-12.8 12.8s6.4 12.8 12.8 12.8h12.8c6.4 0 12.8-6.4 12.8-12.8s-6.4-12.8-12.8-12.8zM467.2 339.2h-12.8c-6.4 0-12.8 6.4-12.8 12.8s6.4 12.8 12.8 12.8h12.8c6.4 0 12.8-6.4 12.8-12.8s-6.4-12.8-12.8-12.8zM550.4 339.2h-12.8c-6.4 0-12.8 6.4-12.8 12.8s6.4 12.8 12.8 12.8h12.8c6.4 0 12.8-6.4 12.8-12.8s0-12.8-12.8-12.8zM652.8 339.2h-12.8c-6.4 0-12.8 6.4-12.8 12.8s6.4 12.8 12.8 12.8h12.8c6.4 0 12.8-6.4 12.8-12.8s0-12.8-12.8-12.8zM761.6 339.2h-12.8c-6.4 0-12.8 6.4-12.8 12.8s6.4 12.8 12.8 12.8h12.8c6.4 0 12.8-6.4 12.8-12.8s-6.4-12.8-12.8-12.8zM262.4 249.6h-12.8c-6.4 0-12.8 6.4-12.8 12.8s6.4 12.8 12.8 12.8h12.8c6.4 0 12.8-6.4 12.8-12.8s-6.4-12.8-12.8-12.8zM364.8 249.6h-12.8c-6.4 0-12.8 6.4-12.8 12.8s6.4 12.8 12.8 12.8h12.8c6.4 0 12.8-6.4 12.8-12.8s-6.4-12.8-12.8-12.8zM467.2 249.6h-12.8c-6.4 0-12.8 6.4-12.8 12.8s6.4 12.8 12.8 12.8h12.8c6.4 0 12.8-6.4 12.8-12.8s-6.4-12.8-12.8-12.8zM550.4 249.6h-12.8c-6.4 0-12.8 6.4-12.8 12.8s6.4 12.8 12.8 12.8h12.8c6.4 0 12.8-6.4 12.8-12.8s0-12.8-12.8-12.8zM652.8 249.6h-12.8c-6.4 0-12.8 6.4-12.8 12.8s6.4 12.8 12.8 12.8h12.8c6.4 0 12.8-6.4 12.8-12.8s0-12.8-12.8-12.8zM761.6 249.6h-12.8c-6.4 0-12.8 6.4-12.8 12.8s6.4 12.8 12.8 12.8h12.8c6.4 0 12.8-6.4 12.8-12.8s-6.4-12.8-12.8-12.8zM262.4 76.8h-12.8c-6.4 0-12.8 6.4-12.8 12.8s6.4 12.8 12.8 12.8h12.8c6.4 0 12.8-6.4 12.8-12.8s-6.4-12.8-12.8-12.8zM364.8 76.8h-12.8c-6.4 0-12.8 6.4-12.8 12.8s6.4 12.8 12.8 12.8h12.8c6.4 0 12.8-6.4 12.8-12.8s-6.4-12.8-12.8-12.8zM467.2 76.8h-12.8c-6.4 0-12.8 6.4-12.8 12.8s6.4 12.8 12.8 12.8h12.8c6.4 0 12.8-6.4 12.8-12.8s-6.4-12.8-12.8-12.8zM550.4 76.8h-12.8c-6.4 0-12.8 6.4-12.8 12.8s6.4 12.8 12.8 12.8h12.8c6.4 0 12.8-6.4 12.8-12.8s0-12.8-12.8-12.8zM262.4 166.4h-12.8c-6.4 0-12.8 6.4-12.8 12.8s6.4 12.8 12.8 12.8h12.8c6.4 0 12.8-6.4 12.8-12.8s-6.4-12.8-12.8-12.8zM364.8 166.4h-12.8c-6.4 0-12.8 6.4-12.8 12.8s6.4 12.8 12.8 12.8h12.8c6.4 0 12.8-6.4 12.8-12.8s-6.4-12.8-12.8-12.8zM467.2 166.4h-12.8c-6.4 0-12.8 6.4-12.8 12.8s6.4 12.8 12.8 12.8h12.8c6.4 0 12.8-6.4 12.8-12.8s-6.4-12.8-12.8-12.8zM550.4 166.4h-12.8c-6.4 0-12.8 6.4-12.8 12.8s6.4 12.8 12.8 12.8h12.8c6.4 0 12.8-6.4 12.8-12.8s0-12.8-12.8-12.8zM652.8 166.4h-12.8c-6.4 0-12.8 6.4-12.8 12.8s6.4 12.8 12.8 12.8h12.8c6.4 0 12.8-6.4 12.8-12.8s0-12.8-12.8-12.8zM761.6 166.4h-12.8c-6.4 0-12.8 6.4-12.8 12.8s6.4 12.8 12.8 12.8h12.8c6.4 0 12.8-6.4 12.8-12.8s-6.4-12.8-12.8-12.8zM249.6 588.8c-19.2 0-32 12.8-32 32v217.6c0 19.2 12.8 32 32 32s32-12.8 32-32v-217.6c-6.4-19.2-19.2-32-32-32zM761.6 588.8c-19.2 0-32 12.8-32 32v217.6c0 19.2 12.8 32 32 32s32-12.8 32-32v-217.6c0-19.2-12.8-32-32-32zM947.2 473.6H64c-6.4 0-12.8 6.4-12.8 12.8s6.4 12.8 12.8 12.8h883.2c6.4 0 12.8-6.4 12.8-12.8s0-12.8-12.8-12.8z"  horiz-adv-x="1024" />

    
    <glyph glyph-name="camera" unicode="&#58984;" d="M512 121.6c-115.2 0-211.2 96-211.2 211.2s96 211.2 211.2 211.2 211.2-96 211.2-211.2c0-115.2-96-211.2-211.2-211.2z m0 390.4c-96 0-179.2-83.2-179.2-179.2 0-96 83.2-179.2 179.2-179.2 96 0 179.2 83.2 179.2 179.2 0 102.4-76.8 179.2-179.2 179.2zM403.2 377.6h-6.4c-6.4 6.4-6.4 12.8-6.4 19.2 25.6 51.2 83.2 76.8 140.8 76.8 6.4 0 12.8-6.4 12.8-12.8s-6.4-12.8-12.8-12.8c-44.8 0-89.6-25.6-115.2-64 0-6.4-6.4-6.4-12.8-6.4zM384 307.2c-6.4 0-12.8 6.4-12.8 12.8 0 12.8 0 19.2 6.4 32 0 6.4 12.8 12.8 19.2 12.8 6.4 0 12.8-12.8 12.8-19.2 0-12.8-6.4-12.8-6.4-25.6 0-6.4-6.4-12.8-19.2-12.8zM889.6-25.6h-748.8c-57.6 0-102.4 44.8-102.4 102.4v454.4c0 57.6 44.8 102.4 102.4 102.4h70.4l51.2 102.4c32 51.2 70.4 57.6 102.4 57.6h268.8c57.6 0 96-19.2 121.6-57.6l57.6-102.4h70.4c57.6 0 102.4-44.8 102.4-102.4v-454.4c6.4-57.6-44.8-102.4-96-102.4z m-748.8 601.6c-25.6 0-44.8-19.2-44.8-44.8v-454.4c0-19.2 19.2-44.8 44.8-44.8h748.8c25.6 0 38.4 19.2 38.4 44.8v454.4c0 19.2-12.8 44.8-38.4 44.8h-89.6c-12.8 0-19.2 6.4-25.6 12.8l-64 115.2c-19.2 19.2-38.4 32-76.8 32h-268.8c-25.6 0-38.4 0-57.6-32l-57.6-115.2c-6.4-12.8-12.8-12.8-25.6-12.8h-83.2zM953.6 416h-262.4c-6.4 0-12.8 6.4-12.8 12.8s6.4 12.8 12.8 12.8h262.4c6.4 0 12.8-6.4 12.8-12.8s-6.4-12.8-12.8-12.8zM339.2 416h-281.6c-6.4 0-12.8 6.4-12.8 12.8s6.4 12.8 12.8 12.8h281.6c6.4 0 12.8-6.4 12.8-12.8s-6.4-12.8-12.8-12.8zM748.8 204.8h-70.4c-6.4 0-12.8 6.4-12.8 12.8s6.4 12.8 12.8 12.8h70.4c6.4 0 12.8-6.4 12.8-12.8s-6.4-12.8-12.8-12.8zM806.4 204.8h-12.8c-6.4 0-12.8 6.4-12.8 12.8s6.4 12.8 12.8 12.8h12.8c6.4 0 12.8-6.4 12.8-12.8s-6.4-12.8-12.8-12.8zM940.8 204.8h-89.6c-6.4 0-12.8 6.4-12.8 12.8s6.4 12.8 12.8 12.8h89.6c6.4 0 12.8-6.4 12.8-12.8s-6.4-12.8-12.8-12.8zM339.2 204.8h-281.6c-6.4 0-12.8 6.4-12.8 12.8s6.4 12.8 12.8 12.8h281.6c6.4 0 12.8-6.4 12.8-12.8s-6.4-12.8-12.8-12.8z"  horiz-adv-x="1024" />

    
    <glyph glyph-name="coctail" unicode="&#58985;" d="M486.4 345.6s-6.4 0 0 0c-64 12.8-102.4 38.4-128 89.6-6.4 6.4 0 19.2 6.4 19.2 6.4 6.4 19.2 0 19.2-6.4 19.2-38.4 51.2-64 102.4-70.4 6.4 0 12.8-6.4 12.8-19.2 0-6.4-6.4-12.8-12.8-12.8zM518.4 230.4h-12.8c-160 0-300.8 147.2-300.8 313.6v288c0 19.2 12.8 25.6 32 25.6h556.8c19.2 0 25.6-12.8 25.6-25.6v-288c0-166.4-140.8-313.6-300.8-313.6z m-256 569.6v-256c0-134.4 115.2-256 243.2-256h12.8c128 0 243.2 121.6 243.2 256v256h-499.2zM716.8-96h-428.8c-19.2 0-32 12.8-32 32s12.8 32 32 32h428.8c19.2 0 32-12.8 32-32s-12.8-32-32-32zM499.2-89.6c-19.2 0-32 12.8-32 32v320c0 19.2 12.8 32 32 32s32-12.8 32-32v-320c-6.4-19.2-19.2-32-32-32zM236.8 480h-6.4c-6.4 6.4-12.8 12.8-6.4 19.2 0 6.4 51.2 89.6 140.8 121.6 51.2 19.2 115.2 6.4 172.8-25.6 140.8-76.8 192-25.6 224 12.8 6.4 12.8 19.2 19.2 25.6 19.2 6.4 0 19.2 0 19.2-6.4s0-19.2-6.4-19.2c0 0-12.8-6.4-12.8-12.8-32-32-96-108.8-262.4-19.2-51.2 32-102.4 38.4-147.2 25.6-83.2-25.6-121.6-102.4-121.6-102.4-12.8-6.4-12.8-12.8-19.2-12.8z"  horiz-adv-x="1024" />

    
    <glyph glyph-name="coffee" unicode="&#58986;" d="M774.4 19.2c-19.2 0-32 12.8-32 32s12.8 32 32 32c83.2 0 153.6 140.8 153.6 224 0 64-38.4 70.4-153.6 70.4-19.2 0-32 12.8-32 32s12.8 32 32 32c89.6 0 211.2 0 211.2-134.4 6.4-115.2-89.6-288-211.2-288zM646.4-96h-467.2c-121.6 0-140.8 57.6-140.8 160v416c0 19.2 12.8 25.6 25.6 25.6h704c19.2 0 32-6.4 32-25.6v-416c0-115.2-44.8-160-153.6-160z m-550.4 544v-384c0-89.6 6.4-102.4 83.2-102.4h467.2c76.8 0 96 19.2 96 102.4v384h-646.4zM147.2 230.4c-6.4 0-6.4 0-12.8 6.4 0 0-6.4 6.4-6.4 12.8s0 6.4 6.4 12.8 12.8 6.4 19.2 0c0 0 6.4-6.4 6.4-12.8s0-6.4-6.4-12.8l-6.4-6.4zM243.2 12.8c-83.2 0-108.8 25.6-108.8 108.8v51.2c0 6.4 6.4 12.8 12.8 12.8s12.8-6.4 12.8-12.8v-51.2c0-70.4 12.8-76.8 76.8-76.8 6.4 0 12.8-6.4 12.8-12.8s6.4-19.2-6.4-19.2zM313.6 556.8c-6.4 0-19.2 6.4-25.6 12.8-12.8 12.8-6.4 32 6.4 38.4 25.6 19.2 38.4 38.4 38.4 51.2 0 6.4 0 12.8-12.8 19.2-32 25.6-96 83.2-32 166.4 6.4 12.8 25.6 19.2 38.4 6.4 12.8-6.4 19.2-25.6 6.4-38.4-25.6-32-19.2-51.2 25.6-89.6 25.6-25.6 32-51.2 32-64 0-32-19.2-64-57.6-96-6.4-6.4-12.8-6.4-19.2-6.4zM486.4 556.8c-6.4 0-19.2 6.4-25.6 12.8-12.8 12.8-6.4 32 6.4 38.4 25.6 19.2 38.4 38.4 38.4 51.2 0 6.4 0 12.8-12.8 19.2-32 25.6-96 83.2-32 166.4 6.4 12.8 25.6 19.2 38.4 6.4 12.8-6.4 19.2-25.6 6.4-38.4-25.6-32-19.2-51.2 25.6-89.6 25.6-25.6 32-51.2 32-64 0-32-19.2-64-57.6-96-6.4-6.4-12.8-6.4-19.2-6.4z"  horiz-adv-x="1024" />

    
    <glyph glyph-name="cd" unicode="&#58987;" d="M512-51.2c-243.2 0-435.2 198.4-435.2 435.2 0 243.2 198.4 435.2 435.2 435.2 243.2 0 435.2-198.4 435.2-435.2 0-243.2-192-435.2-435.2-435.2z m0 819.2c-211.2 0-384-172.8-384-384s172.8-384 384-384 384 172.8 384 384-172.8 384-384 384zM512 281.6c-57.6 0-102.4 44.8-102.4 102.4 0 57.6 44.8 102.4 102.4 102.4s102.4-44.8 102.4-102.4c0-57.6-44.8-102.4-102.4-102.4z m0 147.2c-25.6 0-44.8-19.2-44.8-44.8s19.2-44.8 44.8-44.8c25.6 0 44.8 19.2 44.8 44.8s-19.2 44.8-44.8 44.8zM198.4 352c-6.4 0-12.8 6.4-12.8 12.8v19.2c0 6.4 6.4 12.8 12.8 12.8s12.8-6.4 12.8-12.8v-12.8c0-12.8-6.4-19.2-12.8-19.2zM358.4 96h-6.4c-89.6 51.2-147.2 134.4-160 230.4 0 6.4 6.4 12.8 12.8 12.8s12.8-6.4 12.8-12.8c12.8-89.6 70.4-166.4 147.2-211.2 6.4-6.4 6.4-12.8 6.4-19.2h-12.8zM339.2 204.8c-6.4 0-6.4 0-12.8 6.4-38.4 38.4-64 96-64 153.6 0 6.4 6.4 12.8 12.8 12.8s12.8-6.4 12.8-12.8c0-51.2 19.2-96 57.6-134.4 6.4-6.4 6.4-12.8 0-19.2 0-6.4-6.4-6.4-6.4-6.4zM384 172.8h-6.4c-6.4 0-6.4 6.4-12.8 6.4-6.4 6.4-6.4 12.8-6.4 19.2 6.4 6.4 12.8 6.4 19.2 6.4 6.4 0 6.4-6.4 12.8-6.4 6.4-6.4 6.4-12.8 6.4-19.2-6.4-6.4-12.8-6.4-12.8-6.4zM396.8 249.6h-6.4c-32 19.2-57.6 57.6-57.6 96 0 6.4 6.4 12.8 12.8 12.8s12.8-6.4 12.8-12.8c0-32 12.8-57.6 44.8-70.4 6.4-6.4 6.4-12.8 6.4-19.2 0-6.4-6.4-6.4-12.8-6.4zM819.2 345.6c-6.4 0-12.8 6.4-12.8 12.8 12.8 108.8-32 217.6-121.6 281.6-6.4 6.4-6.4 12.8 0 19.2 6.4 6.4 12.8 6.4 19.2 0 96-70.4 147.2-185.6 134.4-307.2-6.4 0-12.8-6.4-19.2-6.4zM742.4 371.2c-6.4 0-12.8 6.4-12.8 12.8 6.4 70.4-19.2 134.4-76.8 172.8-6.4 6.4-6.4 12.8 0 19.2s12.8 6.4 19.2 0c64-44.8 96-121.6 89.6-198.4-6.4 0-12.8-6.4-19.2-6.4zM672 403.2c-6.4 0-12.8 6.4-12.8 12.8 6.4 32-6.4 57.6-32 76.8-6.4 6.4-6.4 12.8 0 19.2 6.4 6.4 12.8 6.4 19.2 0 32-25.6 51.2-64 44.8-102.4-6.4 0-12.8-6.4-19.2-6.4z"  horiz-adv-x="1024" />

    
    <glyph glyph-name="compass" unicode="&#58988;" d="M512-96c-262.4 0-480 217.6-480 480s217.6 480 480 480 480-217.6 480-480-217.6-480-480-480z m0 902.4c-230.4 0-422.4-192-422.4-422.4 0-230.4 192-422.4 422.4-422.4s422.4 192 422.4 422.4c0 230.4-192 422.4-422.4 422.4zM499.2 768c-19.2 0-32 12.8-32 32v32c0 19.2 12.8 32 32 32s32-12.8 32-32v-32c0-19.2-12.8-32-32-32zM499.2-83.2c-19.2 0-32 12.8-32 32v32c0 19.2 12.8 32 32 32s32-12.8 32-32v-32c0-19.2-12.8-32-32-32zM953.6 345.6h-44.8c-19.2 0-32 12.8-32 32s12.8 32 32 32h44.8c19.2 0 32-12.8 32-32s-19.2-32-32-32zM102.4 345.6h-32c-19.2 0-32 12.8-32 32s12.8 32 32 32h32c19.2 0 32-12.8 32-32s-19.2-32-32-32zM371.2 224c-6.4 0-6.4 0-12.8 6.4s-6.4 12.8-6.4 12.8l76.8 211.2c0 6.4 6.4 6.4 6.4 6.4l211.2 76.8c6.4 0 12.8 0 12.8-6.4 6.4-6.4 6.4-12.8 6.4-12.8l-19.2-57.6c0-6.4-12.8-12.8-19.2-6.4-6.4 0-12.8 12.8-6.4 19.2l12.8 32-172.8-64-64-179.2 172.8 64 6.4 25.6c0 6.4 12.8 12.8 19.2 6.4 6.4 0 12.8-12.8 6.4-19.2l-12.8-32c0-6.4-6.4-6.4-6.4-6.4l-211.2-76.8zM608 377.6s-6.4 0 0 0c-12.8 6.4-19.2 12.8-12.8 19.2l12.8 32c0 6.4 12.8 12.8 19.2 6.4 6.4 0 12.8-12.8 6.4-19.2l-12.8-32s-6.4-6.4-12.8-6.4z"  horiz-adv-x="1024" />

    
    <glyph glyph-name="confirm" unicode="&#58989;" d="M364.8-121.6c-38.4 0-76.8 12.8-102.4 44.8l-217.6 198.4c-25.6 25.6-44.8 64-44.8 102.4 0 38.4 12.8 76.8 44.8 102.4 25.6 25.6 64 44.8 102.4 44.8 38.4 0 76.8-12.8 102.4-38.4l121.6-102.4 467.2 620.8c25.6 25.6 64 44.8 102.4 44.8s76.8-12.8 102.4-44.8c57.6-57.6 57.6-147.2 0-204.8l-563.2-723.2c-38.4-32-76.8-44.8-115.2-44.8z m-224 428.8c-25.6 0-44.8-6.4-57.6-25.6-19.2-19.2-25.6-38.4-25.6-57.6 0-25.6 6.4-44.8 25.6-57.6l217.6-198.4c19.2-19.2 38.4-25.6 64-25.6h12.8c19.2 0 44.8 12.8 57.6 25.6l563.2 723.2c32 32 32 89.6 0 121.6-19.2 19.2-38.4 25.6-57.6 25.6-19.2 0-44.8-6.4-57.6-25.6l-486.4-646.4c-6.4-6.4-12.8-12.8-19.2-12.8-6.4 0-19.2 0-19.2 6.4l-140.8 128c-32 12.8-51.2 19.2-76.8 19.2z"  horiz-adv-x="1086" />

    
    <glyph glyph-name="conus" unicode="&#58990;" d="M793.6-102.4h-569.6c-6.4 0-19.2 6.4-25.6 12.8-6.4 6.4-6.4 19.2-6.4 25.6 6.4 32 198.4 742.4 230.4 838.4 12.8 38.4 38.4 96 83.2 96 44.8 0 64-51.2 83.2-89.6 38.4-102.4 217.6-774.4 230.4-838.4v-12.8c6.4-19.2-6.4-32-25.6-32z m-531.2 57.6h492.8c-38.4 153.6-192 710.4-224 800-12.8 32-19.2 44.8-25.6 51.2-6.4-6.4-12.8-19.2-25.6-51.2-25.6-83.2-179.2-646.4-217.6-800zM896-102.4h-768c-19.2 0-32 12.8-32 32s12.8 32 32 32h761.6c19.2 0 32-12.8 32-32s-12.8-32-25.6-32zM729.6 89.6h-467.2c-6.4 0-12.8 6.4-12.8 12.8s6.4 12.8 12.8 12.8h467.2c6.4 0 12.8-6.4 12.8-12.8s0-12.8-12.8-12.8zM691.2 307.2h-102.4c-6.4 0-12.8 6.4-12.8 12.8s6.4 12.8 12.8 12.8h102.4c6.4 0 12.8-6.4 12.8-12.8s-6.4-12.8-12.8-12.8zM524.8 307.2h-204.8c-6.4 0-12.8 6.4-12.8 12.8s6.4 12.8 12.8 12.8h204.8c6.4 0 12.8-6.4 12.8-12.8 6.4-6.4 0-12.8-12.8-12.8zM627.2 531.2h-236.8c-6.4 0-12.8 6.4-12.8 12.8s6.4 12.8 12.8 12.8h236.8c6.4 0 12.8-6.4 12.8-12.8s0-12.8-12.8-12.8z"  horiz-adv-x="1024" />

    
    <glyph glyph-name="creditcard" unicode="&#58991;" d="M992 128c0-57.6-44.8-102.4-102.4-102.4h-748.8c-57.6 0-102.4 44.8-102.4 102.4v518.4c0 57.6 44.8 102.4 102.4 102.4h748.8c57.6 0 102.4-44.8 102.4-102.4v-518.4z m-64 512c0 25.6-19.2 44.8-44.8 44.8h-748.8c-25.6 0-44.8-19.2-44.8-44.8v-518.4c0-25.6 19.2-44.8 44.8-44.8h748.8c25.6 0 44.8 19.2 44.8 44.8v518.4zM966.4 569.6h-896c-6.4 0-12.8 6.4-12.8 12.8s6.4 12.8 12.8 12.8h896c6.4 0 12.8-6.4 12.8-12.8s0-12.8-12.8-12.8zM966.4 403.2h-896c-6.4 0-12.8 6.4-12.8 12.8s6.4 12.8 12.8 12.8h896c6.4 0 12.8-6.4 12.8-12.8s0-12.8-12.8-12.8zM192 185.6h-57.6c-6.4 0-12.8 6.4-12.8 12.8s6.4 12.8 12.8 12.8h57.6c6.4 0 12.8-6.4 12.8-12.8s-6.4-12.8-12.8-12.8zM352 185.6h-102.4c-6.4 0-12.8 6.4-12.8 12.8s6.4 12.8 12.8 12.8h102.4c6.4 0 12.8-6.4 12.8-12.8s-6.4-12.8-12.8-12.8zM441.6 185.6h-32c-6.4 0-12.8 6.4-12.8 12.8s6.4 12.8 12.8 12.8h32c6.4 0 12.8-6.4 12.8-12.8s-6.4-12.8-12.8-12.8z"  horiz-adv-x="1024" />

    
    <glyph glyph-name="cloud" unicode="&#58992;" d="M614.4-19.2h-364.8c-128 0-236.8 108.8-236.8 236.8 0 83.2 44.8 160 108.8 204.8 6.4 70.4 57.6 121.6 128 128 64 140.8 204.8 230.4 364.8 230.4 217.6 0 396.8-179.2 396.8-396.8 0-217.6-172.8-390.4-384-403.2h-12.8z m-345.6 512c-44.8 0-83.2-38.4-83.2-83.2 0-12.8-6.4-19.2-12.8-25.6-57.6-32-96-89.6-96-160 0-96 76.8-179.2 179.2-179.2h371.2c185.6 0 332.8 153.6 332.8 345.6 0 185.6-153.6 339.2-339.2 339.2-140.8 0-262.4-83.2-313.6-211.2-12.8-19.2-25.6-25.6-38.4-25.6zM876.8 390.4c-6.4 0-12.8 6.4-12.8 19.2v25.6c0 6.4 6.4 12.8 12.8 19.2 6.4 0 12.8-6.4 19.2-12.8v-25.6c-6.4-12.8-12.8-25.6-19.2-25.6zM851.2 505.6c-6.4 0-12.8 0-12.8 6.4-38.4 70.4-108.8 115.2-192 115.2-6.4 0-12.8 6.4-12.8 12.8s6.4 12.8 12.8 12.8c89.6 0 172.8-51.2 217.6-128 6.4-6.4 0-19.2-6.4-19.2h-6.4z"  horiz-adv-x="1024" />

    
    <glyph glyph-name="contacts" unicode="&#58993;" d="M908.8 19.2c0-57.6-44.8-102.4-102.4-102.4h-588.8c-57.6 0-102.4 44.8-102.4 102.4v736c0 57.6 44.8 102.4 102.4 102.4h588.8c57.6 0 102.4-44.8 102.4-102.4v-736z m-57.6 729.6c0 25.6-19.2 44.8-44.8 44.8h-588.8c-25.6 0-44.8-19.2-44.8-44.8v-736c0-25.6 19.2-44.8 44.8-44.8h588.8c25.6 0 44.8 19.2 44.8 44.8v736zM320-70.4c-6.4 0-12.8 6.4-12.8 12.8v883.2c0 6.4 6.4 12.8 12.8 12.8s12.8-6.4 12.8-12.8v-883.2c0-6.4-6.4-12.8-12.8-12.8zM742.4 0h-243.2c-6.4 0-12.8 6.4-12.8 12.8s6.4 12.8 12.8 12.8h243.2c25.6 0 51.2 25.6 51.2 70.4v44.8c0 6.4 6.4 12.8 12.8 12.8s12.8-6.4 12.8-12.8v-44.8c0-51.2-38.4-96-76.8-96zM793.6 211.2c-6.4 0-6.4 0-12.8 6.4 0 0-6.4 6.4-6.4 12.8s0 6.4 6.4 12.8 12.8 6.4 19.2 0c0 0 6.4-6.4 6.4-12.8s0-6.4-6.4-12.8c0-6.4 0-6.4-6.4-6.4zM704 524.8c-6.4 0-6.4 0 0 0l-89.6 38.4-83.2-38.4h-12.8c-6.4 0-6.4 6.4-6.4 12.8v288c0 6.4 6.4 19.2 12.8 19.2h179.2c6.4 0 12.8-12.8 12.8-19.2v-288c0-6.4 0-12.8-6.4-12.8h-6.4z m-89.6 70.4s6.4 0 0 0l70.4-32v249.6h-147.2v-249.6l76.8 32c-6.4 0 0 0 0 0z"  horiz-adv-x="1024" />

    
    <glyph glyph-name="cup" unicode="&#58994;" d="M486.4 230.4c-96 19.2-140.8 83.2-140.8 198.4v83.2c0 6.4 6.4 12.8 12.8 12.8s12.8-6.4 12.8-12.8v-83.2c0-102.4 38.4-153.6 121.6-172.8 6.4 0 12.8-6.4 12.8-19.2-6.4 0-12.8-6.4-19.2-6.4zM544 198.4h-12.8c-6.4 0-12.8 6.4-12.8 12.8s6.4 12.8 12.8 12.8h12.8c6.4 0 12.8-6.4 12.8-12.8s-6.4-12.8-12.8-12.8zM537.6 83.2h-12.8c-160 0-300.8 147.2-300.8 313.6v435.2c0 19.2 6.4 25.6 25.6 25.6h556.8c19.2 0 32-12.8 32-25.6v-435.2c0-166.4-140.8-313.6-300.8-313.6z m-256 716.8v-403.2c0-134.4 115.2-256 236.8-256h12.8c128 0 243.2 121.6 243.2 256v403.2h-492.8zM736-96h-428.8c-19.2 0-32 12.8-32 32s12.8 32 32 32h428.8c19.2 0 32-12.8 32-32s-19.2-32-32-32zM518.4-89.6c-19.2 0-32 12.8-32 32v179.2c0 19.2 12.8 32 32 32s32-12.8 32-32v-179.2c-6.4-19.2-19.2-32-32-32zM806.4 345.6c-19.2 0-32 12.8-32 32s12.8 32 32 32c57.6 0 128 153.6 128 249.6 0 12.8 0 32-12.8 44.8-12.8 12.8-44.8 12.8-76.8 12.8h-38.4c-19.2 0-32 12.8-32 32s12.8 32 32 32h32c44.8 0 89.6 0 121.6-25.6 19.2-19.2 25.6-44.8 25.6-83.2 6.4-121.6-64-326.4-179.2-326.4zM217.6 345.6c-115.2 0-185.6 204.8-185.6 313.6 0 38.4 6.4 64 25.6 83.2 32 32 76.8 25.6 121.6 25.6h32c19.2 0 32-12.8 32-32s-12.8-32-32-32h-38.4c-32 0-64 0-76.8-12.8-6.4-6.4-12.8-25.6-12.8-44.8 0-102.4 70.4-249.6 128-249.6 19.2 0 32-12.8 32-32 0-6.4-12.8-19.2-25.6-19.2z"  horiz-adv-x="1024" />

    
    <glyph glyph-name="refresh" unicode="&#58894;" d="M352 224c-6.4 0-12.8 0-19.2 6.4l-96 83.2c-12.8 6.4-12.8 19.2-12.8 32s6.4 19.2 19.2 25.6l121.6 44.8c12.8 6.4 25.6 0 32-6.4 6.4-6.4 12.8-19.2 6.4-32l-25.6-121.6c0-19.2-12.8-32-25.6-32z m25.6 166.4l-121.6-44.8v-6.4l96-83.2 25.6 121.6v12.8zM512-83.2c-256 0-467.2 211.2-467.2 467.2s211.2 467.2 467.2 467.2 467.2-211.2 467.2-467.2-211.2-467.2-467.2-467.2z m0 876.8c-224 0-409.6-185.6-409.6-409.6s185.6-409.6 409.6-409.6 409.6 185.6 409.6 409.6-185.6 409.6-409.6 409.6zM512 160c-6.4 0-12.8 6.4-12.8 12.8s6.4 12.8 12.8 12.8c108.8 0 198.4 89.6 198.4 198.4 0 108.8-89.6 198.4-198.4 198.4s-198.4-89.6-198.4-198.4c0-6.4-6.4-12.8-12.8-12.8s-12.8 6.4-12.8 12.8c0 128 102.4 224 224 224s224-102.4 224-224c0-128-96-224-224-224zM857.6 371.2c-6.4 0-12.8 6.4-12.8 12.8 0 147.2-102.4 281.6-243.2 320-6.4 0-12.8 12.8-12.8 19.2 0 6.4 12.8 12.8 19.2 12.8 160-44.8 268.8-185.6 268.8-352 0-6.4-6.4-12.8-19.2-12.8zM531.2 716.8h-19.2c-6.4 0-12.8 6.4-12.8 12.8s6.4 12.8 12.8 12.8h19.2c6.4 0 12.8-6.4 12.8-12.8s-6.4-12.8-12.8-12.8z"  horiz-adv-x="1024" />

    
    <glyph glyph-name="sale" unicode="&#58895;" d="M454.4-89.6c-32 0-57.6 19.2-83.2 51.2l-281.6 281.6c-64 64-64 108.8 0 172.8l441.6 441.6c6.4 6.4 12.8 6.4 25.6 6.4l371.2-38.4h6.4c12.8 0 19.2-12.8 25.6-25.6l38.4-371.2c0-6.4 0-19.2-6.4-25.6l-441.6-441.6c-44.8-32-70.4-51.2-96-51.2z m102.4 889.6l-428.8-428.8c-44.8-44.8-44.8-44.8 0-89.6l281.6-281.6c12.8-12.8 32-32 44.8-32 12.8 0 32 19.2 44.8 32l428.8 428.8-32 332.8-339.2 38.4zM217.6 275.2c-6.4 0-6.4 0-12.8 6.4-38.4 38.4-25.6 57.6 6.4 96l128 128c6.4 6.4 12.8 6.4 19.2 0 6.4-6.4 6.4-12.8 0-19.2l-128-128c-25.6-25.6-25.6-32-6.4-51.2 6.4-6.4 6.4-12.8 0-19.2 0-6.4-6.4-12.8-6.4-12.8zM377.6 512c-6.4 0-6.4 0-12.8 6.4s-6.4 12.8 0 19.2l12.8 12.8c6.4 6.4 12.8 6.4 19.2 0 6.4-6.4 6.4-12.8 0-19.2l-12.8-12.8c0-6.4 0-6.4-6.4-6.4zM723.2 480c-64 0-121.6 51.2-121.6 121.6 0 64 51.2 121.6 121.6 121.6s121.6-51.2 121.6-121.6c0-70.4-57.6-121.6-121.6-121.6z m0 179.2c-32 0-64-25.6-64-64 0-32 25.6-64 64-64s64 25.6 64 64-32 64-64 64z"  horiz-adv-x="1024" />

    
    <glyph glyph-name="search" unicode="&#58896;" d="M396.8 140.8c-192 0-352 160-352 352s160 352 352 352 352-160 352-352-153.6-352-352-352z m0 646.4c-160 0-294.4-134.4-294.4-294.4s134.4-294.4 294.4-294.4c160 0 294.4 134.4 294.4 294.4s-128 294.4-294.4 294.4zM192 601.6h-6.4c-6.4 6.4-6.4 12.8-6.4 19.2 44.8 76.8 128 128 224 128 6.4 0 12.8-6.4 12.8-12.8s-6.4-12.8-12.8-12.8c-83.2 0-153.6-44.8-198.4-108.8-6.4-12.8-12.8-12.8-12.8-12.8zM153.6 486.4c-6.4 0-12.8 6.4-12.8 12.8 0 19.2 0 32 6.4 51.2 0 6.4 6.4 12.8 19.2 12.8 6.4 0 12.8-6.4 12.8-19.2-6.4-19.2-6.4-25.6-6.4-44.8 0-6.4-6.4-12.8-19.2-12.8zM889.6-76.8c-25.6 0-44.8 6.4-64 25.6l-230.4 230.4c-19.2 19.2-25.6 38.4-19.2 64 6.4 19.2 19.2 32 32 44.8 19.2 19.2 38.4 32 64 32 12.8 0 25.6-6.4 44.8-19.2l230.4-230.4c19.2-19.2 25.6-38.4 25.6-64s-6.4-44.8-25.6-64c-12.8-12.8-32-19.2-57.6-19.2z m-256 300.8s6.4 0 0 0l236.8-236.8c12.8-12.8 32-12.8 38.4 0 6.4 6.4 6.4 12.8 6.4 19.2 0 6.4 0 12.8-6.4 19.2l-230.4 230.4h-6.4s-6.4 0-25.6-19.2l-12.8-12.8z"  horiz-adv-x="1024" />

    
    <glyph glyph-name="send" unicode="&#58897;" d="M684.8-76.8c-32 0-57.6 12.8-89.6 44.8l-505.6 505.6c-32 32-51.2 76.8-38.4 108.8 12.8 38.4 38.4 64 89.6 76.8l684.8 185.6c51.2 12.8 96 0 121.6-32 19.2-25.6 25.6-64 12.8-108.8l-185.6-684.8c-6.4-64-44.8-96-89.6-96z m185.6 864c-6.4 0-19.2 0-25.6-6.4l-684.8-185.6c-25.6-6.4-44.8-19.2-44.8-32-6.4-12.8 6.4-38.4 25.6-57.6l505.6-505.6c19.2-19.2 32-25.6 44.8-25.6 25.6 0 38.4 32 44.8 51.2l185.6 684.8c6.4 25.6 6.4 44.8-6.4 57.6-19.2 19.2-32 19.2-44.8 19.2zM742.4 236.8s-6.4 0 0 0c-12.8 0-12.8 12.8-12.8 19.2v6.4c0 6.4 12.8 12.8 19.2 12.8 6.4 0 12.8-12.8 12.8-19.2v-6.4c-6.4-6.4-12.8-12.8-19.2-12.8zM697.6 83.2c-12.8 0-12.8 12.8-12.8 19.2l32 115.2c0 6.4 12.8 12.8 19.2 12.8 6.4 0 12.8-12.8 12.8-19.2l-32-115.2c-6.4-6.4-12.8-12.8-19.2-12.8zM371.2 204.8c-6.4 0-12.8 0-19.2 6.4-12.8 12.8-12.8 32 0 38.4l192 192c12.8 12.8 32 12.8 38.4 0 12.8-12.8 12.8-32 0-38.4l-192-192c-6.4-6.4-12.8-6.4-19.2-6.4z"  horiz-adv-x="1024" />

    
    <glyph glyph-name="settings" unicode="&#58898;" d="M505.6 249.6c-70.4 0-134.4 57.6-134.4 134.4 0 70.4 57.6 134.4 134.4 134.4 70.4 0 134.4-57.6 134.4-134.4 0-70.4-57.6-134.4-134.4-134.4z m0 211.2c-38.4 0-76.8-32-76.8-76.8s32-76.8 76.8-76.8c38.4 0 76.8 32 76.8 76.8s-32 76.8-76.8 76.8zM512-83.2c-57.6 0-102.4 38.4-121.6 96-25.6 6.4-44.8 19.2-64 25.6-19.2-12.8-44.8-19.2-70.4-19.2-32 0-57.6 12.8-76.8 32-38.4 38.4-44.8 96-12.8 147.2-12.8 19.2-19.2 44.8-25.6 64-57.6 19.2-89.6 64-89.6 115.2s38.4 96 89.6 115.2c6.4 25.6 12.8 44.8 25.6 70.4-25.6 51.2-25.6 108.8 12.8 147.2 19.2 19.2 51.2 32 83.2 32 25.6 0 44.8-6.4 70.4-19.2 19.2 12.8 38.4 19.2 64 25.6 12.8 57.6 64 96 121.6 96 57.6 0 102.4-38.4 115.2-96 19.2-6.4 44.8-12.8 64-25.6 19.2 12.8 44.8 19.2 64 19.2 32 0 64-12.8 83.2-32 38.4-38.4 44.8-102.4 12.8-147.2 12.8-19.2 19.2-38.4 25.6-64 57.6-12.8 96-64 96-115.2 0-57.6-44.8-102.4-96-115.2-6.4-19.2-12.8-38.4-25.6-57.6 32-51.2 25.6-115.2-19.2-153.6-19.2-19.2-51.2-32-83.2-32-25.6 0-44.8 6.4-64 19.2-19.2-12.8-44.8-19.2-64-25.6-19.2-64-64-102.4-115.2-102.4z m-185.6 185.6c6.4 0 12.8 0 12.8-6.4 25.6-12.8 51.2-25.6 83.2-32 12.8 0 19.2-12.8 19.2-25.6 6.4-38.4 32-64 64-64s57.6 32 57.6 64c0 12.8 12.8 19.2 19.2 25.6 32 6.4 57.6 19.2 83.2 38.4 12.8 6.4 25.6 6.4 32 0 12.8-12.8 32-19.2 44.8-19.2 12.8 0 32 6.4 38.4 19.2 25.6 25.6 25.6 64 0 89.6-6.4 6.4-6.4 19.2 0 32 12.8 25.6 25.6 51.2 32 76.8 0 12.8 12.8 19.2 25.6 19.2 38.4 0 64 32 64 64s-25.6 57.6-64 64c-12.8 0-25.6 6.4-25.6 19.2-6.4 25.6-19.2 57.6-32 83.2-6.4 12.8-6.4 25.6 0 32 25.6 25.6 25.6 64 0 89.6-12.8 12.8-25.6 19.2-44.8 19.2-19.2 0-32-6.4-44.8-19.2-6.4-6.4-19.2-6.4-32 0-25.6 12.8-51.2 25.6-83.2 32-12.8 0-19.2 12.8-19.2 25.6-6.4 38.4-25.6 64-57.6 64s-64-25.6-64-64c0-12.8-12.8-19.2-19.2-25.6-25.6-6.4-57.6-19.2-83.2-32-12.8-6.4-19.2-6.4-32 0-12.8 12.8-32 19.2-51.2 19.2-19.2 0-32-6.4-44.8-12.8-25.6-25.6-12.8-64 0-89.6 6.4-6.4 6.4-19.2 0-32-12.8-25.6-25.6-51.2-32-83.2 0-12.8-12.8-19.2-19.2-19.2-38.4-6.4-64-32-64-64 0-25.6 25.6-57.6 64-64 12.8 0 19.2-12.8 19.2-19.2 6.4-32 19.2-57.6 32-83.2 6.4-12.8 6.4-19.2 0-32-19.2-32-19.2-70.4 0-89.6 12.8-12.8 25.6-12.8 38.4-12.8 19.2 0 38.4 6.4 51.2 19.2 19.2-12.8 25.6-6.4 32-6.4zM755.2 460.8c-6.4 0-12.8 6.4-12.8 6.4-38.4 96-128 160-230.4 160-6.4 0-12.8 6.4-12.8 12.8s6.4 12.8 12.8 12.8c115.2 0 217.6-70.4 256-179.2 0 0 0-6.4-12.8-12.8zM268.8 256c-6.4 0-12.8 0-12.8 6.4s-6.4 6.4-6.4 12.8c0 0 0 6.4-6.4 12.8 0 6.4 0 12.8 6.4 19.2 6.4 0 12.8 0 19.2-6.4 0-6.4 6.4-12.8 6.4-12.8 0-6.4 0-6.4 6.4-12.8s0-12.8-6.4-19.2h-6.4zM499.2 108.8c-83.2 0-160 38.4-211.2 96-6.4 6.4-6.4 12.8 0 19.2 6.4 6.4 12.8 6.4 19.2 0 44.8-57.6 115.2-89.6 192-89.6 6.4 0 12.8-6.4 12.8-12.8 6.4-6.4 0-12.8-12.8-12.8z"  horiz-adv-x="1024" />

    
    <glyph glyph-name="save" unicode="&#58899;" d="M832-76.8h-633.6c-108.8 0-147.2 44.8-147.2 153.6v620.8c0 108.8 32 147.2 147.2 147.2h486.4c6.4 0 12.8 0 19.2-6.4l256-204.8c6.4-6.4 12.8-12.8 12.8-19.2v-531.2c0-108.8-25.6-160-140.8-160z m-633.6 864c-83.2 0-89.6-12.8-89.6-89.6v-620.8c0-83.2 6.4-96 89.6-96h633.6c70.4 0 83.2 6.4 83.2 96v518.4l-236.8 192h-480zM697.6 486.4h-371.2c-32 0-64 6.4-64 64v256c0 6.4 6.4 12.8 12.8 12.8s12.8-6.4 12.8-12.8v-256c0-25.6 0-32 32-32h371.2c25.6 0 32 0 32 32v211.2c0 6.4 6.4 12.8 12.8 12.8s12.8-6.4 12.8-12.8v-211.2c6.4-44.8 0-64-51.2-64zM614.4 601.6c-12.8 0-32 12.8-32 32v83.2c0 12.8 12.8 25.6 32 25.6 12.8 0 25.6-12.8 25.6-25.6v-83.2c0-19.2-12.8-32-25.6-32zM403.2 281.6h-115.2c-6.4 0-12.8 6.4-12.8 12.8s6.4 12.8 12.8 12.8h115.2c6.4 0 12.8-6.4 12.8-12.8 6.4-6.4 0-12.8-12.8-12.8zM608 281.6h-140.8c-6.4 0-12.8 6.4-12.8 12.8s6.4 12.8 12.8 12.8h140.8c6.4 0 12.8-6.4 12.8-12.8s-6.4-12.8-12.8-12.8zM723.2 281.6h-57.6c-6.4 0-12.8 6.4-12.8 12.8s6.4 12.8 12.8 12.8h57.6c6.4 0 12.8-6.4 12.8-12.8s-6.4-12.8-12.8-12.8zM345.6 211.2h-57.6c-6.4 0-12.8 6.4-12.8 12.8s6.4 12.8 12.8 12.8h57.6c6.4 0 12.8-6.4 12.8-12.8 6.4-6.4 0-12.8-12.8-12.8zM518.4 211.2h-115.2c-6.4 0-12.8 6.4-12.8 12.8s6.4 12.8 12.8 12.8h115.2c6.4 0 12.8-6.4 12.8-12.8 6.4-6.4 0-12.8-12.8-12.8zM723.2 211.2h-140.8c-6.4 0-12.8 6.4-12.8 12.8s6.4 12.8 12.8 12.8h140.8c6.4 0 12.8-6.4 12.8-12.8s-6.4-12.8-12.8-12.8zM435.2 128h-140.8c-6.4 0-12.8 6.4-12.8 12.8s6.4 12.8 12.8 12.8h140.8c6.4 0 12.8-6.4 12.8-12.8s-6.4-12.8-12.8-12.8zM537.6 128h-44.8c-6.4 0-12.8 6.4-12.8 12.8s6.4 12.8 12.8 12.8h44.8c6.4 0 12.8-6.4 12.8-12.8s-6.4-12.8-12.8-12.8z"  horiz-adv-x="1024" />

    
    <glyph glyph-name="slider" unicode="&#58900;" d="M979.2 12.8c0-57.6-44.8-102.4-102.4-102.4h-736c-57.6 0-102.4 44.8-102.4 102.4v505.6c0 57.6 44.8 102.4 102.4 102.4h736c57.6 0 102.4-44.8 102.4-102.4v-505.6z m-57.6 512c0 25.6-19.2 44.8-44.8 44.8h-736c-25.6 0-44.8-19.2-44.8-44.8v-505.6c0-25.6 19.2-44.8 44.8-44.8h736c25.6 0 44.8 19.2 44.8 44.8v505.6zM172.8 364.8c-6.4 0-12.8 6.4-12.8 12.8v57.6c0 38.4 32 76.8 70.4 76.8h262.4c6.4 0 12.8-6.4 12.8-12.8s-6.4-12.8-12.8-12.8h-262.4c-19.2 0-44.8-25.6-44.8-44.8v-57.6c0-12.8-6.4-19.2-12.8-19.2zM172.8 288c-6.4 0-12.8 6.4-12.8 12.8v25.6c0 6.4 6.4 12.8 12.8 12.8s12.8-6.4 12.8-12.8v-25.6c0-6.4-6.4-12.8-12.8-12.8zM864 678.4h-704c-12.8 0-32 12.8-32 25.6s12.8 25.6 32 25.6h704c12.8 0 25.6-12.8 25.6-25.6 6.4-12.8-6.4-25.6-25.6-25.6zM780.8 793.6h-531.2c-12.8 0-25.6 12.8-25.6 25.6s12.8 25.6 25.6 25.6h531.2c12.8 0 32-12.8 32-25.6-6.4-12.8-19.2-25.6-32-25.6z"  horiz-adv-x="1024" />

    
    <glyph glyph-name="share" unicode="&#58901;" d="M755.2 480c-102.4 0-179.2 83.2-179.2 179.2 0 102.4 83.2 179.2 179.2 179.2 102.4 0 179.2-83.2 179.2-179.2 0-102.4-83.2-179.2-179.2-179.2z m0 300.8c-70.4 0-121.6-57.6-121.6-121.6s57.6-121.6 121.6-121.6c70.4 0 121.6 57.6 121.6 121.6s-57.6 121.6-121.6 121.6zM684.8 691.2h-6.4c-6.4 6.4-6.4 12.8-6.4 19.2 19.2 25.6 44.8 44.8 76.8 44.8 6.4 0 12.8-6.4 12.8-12.8s-6.4-12.8-12.8-12.8c-19.2 0-44.8-12.8-57.6-32 6.4-6.4 0-6.4-6.4-6.4zM262.4 211.2c-108.8 0-204.8 89.6-204.8 204.8 0 108.8 89.6 204.8 204.8 204.8 108.8 0 204.8-89.6 204.8-204.8 0-115.2-96-204.8-204.8-204.8z m0 345.6c-76.8 0-147.2-64-147.2-147.2s64-147.2 147.2-147.2 147.2 64 147.2 147.2c0 83.2-64 147.2-147.2 147.2zM172.8 396.8c-6.4 0-12.8 6.4-12.8 12.8v6.4 12.8c0 6.4 6.4 12.8 19.2 12.8 6.4 0 12.8-6.4 12.8-19.2v-12.8c-6.4-6.4-12.8-12.8-19.2-12.8zM185.6 448h-6.4c-6.4 6.4-6.4 12.8-6.4 19.2 19.2 32 51.2 44.8 89.6 44.8 6.4 0 12.8-6.4 12.8-12.8s-6.4-12.8-12.8-12.8c-25.6 0-51.2-12.8-64-32 0 0-6.4-6.4-12.8-6.4zM736-70.4c-121.6 0-224 102.4-224 224s102.4 224 224 224 224-102.4 224-224-96-224-224-224z m0 390.4c-89.6 0-166.4-76.8-166.4-166.4 0-89.6 76.8-166.4 166.4-166.4 89.6 0 166.4 76.8 166.4 166.4 6.4 96-70.4 166.4-166.4 166.4zM640 211.2h-6.4c-6.4 6.4-6.4 12.8-6.4 19.2 19.2 32 57.6 51.2 96 51.2 6.4 0 12.8-6.4 12.8-12.8s-6.4-12.8-12.8-12.8c-32 0-57.6-12.8-76.8-38.4l-6.4-6.4zM405.376 458.304l-22.72 52.928 235.136 101.12 22.784-52.864zM540.16 201.92l-155.2 76.096 25.344 51.712 155.136-76.032z"  horiz-adv-x="1024" />

    
    <glyph glyph-name="star" unicode="&#58902;" d="M755.2-89.6c-12.8 0-32 6.4-44.8 12.8l-192 102.4-192-102.4c-32-19.2-70.4-12.8-102.4 6.4-32 19.2-44.8 57.6-38.4 89.6l38.4 230.4-166.4 166.4c-25.6 25.6-32 64-19.2 96s38.4 57.6 76.8 64l224 32 96 204.8c12.8 32 51.2 51.2 83.2 51.2 38.4 0 70.4-19.2 83.2-51.2l96-204.8 224-32c38.4-6.4 64-32 76.8-64 12.8-32 0-70.4-19.2-96l-166.4-166.4 38.4-230.4c6.4-38.4-6.4-70.4-38.4-89.6-19.2-12.8-38.4-19.2-57.6-19.2z m-243.2 179.2c6.4 0 6.4 0 12.8-6.4l211.2-115.2c12.8-6.4 25.6-6.4 38.4 0 12.8 6.4 19.2 19.2 12.8 32l-38.4 243.2c0 6.4 0 19.2 6.4 25.6l172.8 172.8c6.4 6.4 12.8 25.6 6.4 38.4-6.4 12.8-12.8 19.2-32 25.6l-236.8 38.4c-6.4 0-19.2 6.4-19.2 12.8l-102.4 217.6c-6.4 12.8-19.2 19.2-32 19.2s-25.6-6.4-32-19.2l-102.4-217.6c-6.4-6.4-12.8-12.8-19.2-12.8l-236.8-38.4c-12.8 0-25.6-12.8-32-25.6-6.4-12.8 0-25.6 6.4-38.4l172.8-172.8c6.4-6.4 6.4-12.8 6.4-25.6l-38.4-243.2c0-12.8 6.4-25.6 12.8-32 12.8-6.4 25.6-6.4 38.4 0l211.2 115.2c6.4 6.4 6.4 6.4 12.8 6.4zM198.4 441.6c-6.4 0-12.8 6.4-12.8 12.8s6.4 12.8 12.8 19.2h6.4c6.4 0 12.8-6.4 19.2-12.8 0-6.4-6.4-12.8-12.8-19.2h-12.8z m51.2 6.4c-6.4 0-12.8 6.4-12.8 12.8s6.4 12.8 12.8 19.2l153.6 32 57.6 134.4c0 6.4 12.8 12.8 19.2 6.4 6.4 0 12.8-12.8 6.4-19.2l-64-140.8c0-6.4-6.4-6.4-12.8-6.4l-160-38.4z"  horiz-adv-x="1024" />

    
    <glyph glyph-name="smalllist" unicode="&#58903;" d="M166.4 601.6h-12.8c-70.4 0-121.6 57.6-121.6 121.6 0 70.4 57.6 121.6 121.6 121.6h12.8c70.4 0 121.6-57.6 121.6-121.6 0-70.4-51.2-121.6-121.6-121.6z m-12.8 185.6c-38.4 0-64-32-64-64 0-38.4 32-64 64-64h12.8c38.4 0 64 32 64 64 0 38.4-32 64-64 64h-12.8zM166.4-76.8h-12.8c-70.4 0-121.6 57.6-121.6 121.6 0 70.4 57.6 121.6 121.6 121.6h12.8c70.4 0 121.6-57.6 121.6-121.6 0-64-51.2-121.6-121.6-121.6z m-12.8 185.6c-38.4 0-64-32-64-64 0-38.4 32-64 64-64h12.8c38.4 0 64 32 64 64 0 38.4-32 64-64 64h-12.8zM166.4 256h-12.8c-70.4 0-121.6 57.6-121.6 121.6 0 70.4 57.6 121.6 121.6 121.6h12.8c70.4 0 121.6-57.6 121.6-121.6 0-70.4-51.2-121.6-121.6-121.6z m-12.8 185.6c-38.4 0-64-32-64-64 0-38.4 32-64 64-64h12.8c38.4 0 64 32 64 64 0 38.4-32 64-64 64h-12.8zM512 601.6h-12.8c-70.4 0-121.6 57.6-121.6 121.6 0 70.4 57.6 121.6 121.6 121.6h12.8c70.4 0 121.6-57.6 121.6-121.6 0-70.4-51.2-121.6-121.6-121.6z m-12.8 185.6c-38.4 0-64-32-64-64 0-38.4 32-64 64-64h12.8c38.4 0 64 32 64 64 0 38.4-32 64-64 64h-12.8zM512-76.8h-12.8c-70.4 0-121.6 57.6-121.6 121.6 0 70.4 57.6 121.6 121.6 121.6h12.8c70.4 0 121.6-57.6 121.6-121.6 0-64-51.2-121.6-121.6-121.6z m-12.8 185.6c-38.4 0-64-32-64-64 0-38.4 32-64 64-64h12.8c38.4 0 64 32 64 64 0 38.4-32 64-64 64h-12.8zM512 256h-12.8c-70.4 0-121.6 57.6-121.6 121.6 0 70.4 57.6 121.6 121.6 121.6h12.8c70.4 0 121.6-57.6 121.6-121.6 0-70.4-51.2-121.6-121.6-121.6z m-12.8 185.6c-38.4 0-64-32-64-64 0-38.4 32-64 64-64h12.8c38.4 0 64 32 64 64 0 38.4-32 64-64 64h-12.8zM870.4 601.6h-12.8c-70.4 0-121.6 57.6-121.6 121.6 0 70.4 57.6 121.6 121.6 121.6h12.8c70.4 0 121.6-57.6 121.6-121.6 0-70.4-51.2-121.6-121.6-121.6z m-12.8 185.6c-38.4 0-64-32-64-64 0-38.4 32-64 64-64h12.8c38.4 0 64 32 64 64 0 38.4-32 64-64 64h-12.8zM870.4-76.8h-12.8c-70.4 0-121.6 57.6-121.6 121.6 0 70.4 57.6 121.6 121.6 121.6h12.8c70.4 0 121.6-57.6 121.6-121.6 0-64-51.2-121.6-121.6-121.6z m-12.8 185.6c-38.4 0-64-32-64-64 0-38.4 32-64 64-64h12.8c38.4 0 64 32 64 64 0 38.4-32 64-64 64h-12.8zM870.4 256h-12.8c-70.4 0-121.6 57.6-121.6 121.6 0 70.4 57.6 121.6 121.6 121.6h12.8c70.4 0 121.6-57.6 121.6-121.6 0-70.4-51.2-121.6-121.6-121.6z m-12.8 185.6c-38.4 0-64-32-64-64 0-38.4 32-64 64-64h12.8c38.4 0 64 32 64 64 0 38.4-32 64-64 64h-12.8z"  horiz-adv-x="1024" />

    
    <glyph glyph-name="switchers" unicode="&#58904;" d="M972.8 633.6c0-115.2-96-211.2-211.2-211.2h-499.2c-115.2 0-211.2 96-211.2 211.2v6.4c0 115.2 96 211.2 211.2 211.2h499.2c115.2 0 211.2-96 211.2-211.2v-6.4z m-57.6 6.4c0 83.2-70.4 153.6-153.6 153.6h-499.2c-83.2 0-153.6-70.4-153.6-153.6v-6.4c0-83.2 70.4-153.6 153.6-153.6h499.2c83.2 0 153.6 70.4 153.6 153.6v6.4zM857.6 595.2c-6.4 0-12.8 6.4-12.8 12.8v6.4c0 64-51.2 108.8-115.2 108.8h-64c-6.4 0-12.8 6.4-12.8 12.8s6.4 12.8 12.8 12.8h64c76.8 0 147.2-57.6 147.2-134.4v-6.4c-6.4-6.4-12.8-12.8-19.2-12.8zM608 723.2h-25.6c-6.4 0-12.8 6.4-12.8 12.8s6.4 12.8 12.8 12.8h25.6c6.4 0 12.8-6.4 12.8-12.8s-6.4-12.8-12.8-12.8zM275.2 518.4c-70.4 0-128 57.6-128 128s57.6 128 128 128 128-57.6 128-128-57.6-128-128-128z m0 192c-38.4 0-70.4-32-70.4-70.4 0-38.4 32-70.4 70.4-70.4 38.4 0 70.4 32 70.4 70.4 0 38.4-32 70.4-70.4 70.4zM972.8 128c0-115.2-96-211.2-211.2-211.2h-499.2c-115.2 0-211.2 96-211.2 211.2v6.4c0 115.2 96 211.2 211.2 211.2h499.2c115.2 0 211.2-96 211.2-211.2v-6.4z m-57.6 6.4c0 83.2-70.4 153.6-153.6 153.6h-499.2c-83.2 0-153.6-70.4-153.6-153.6v-6.4c0-83.2 70.4-153.6 153.6-153.6h499.2c83.2 0 153.6 70.4 153.6 153.6v6.4zM166.4 96c-6.4 0-12.8 6.4-12.8 12.8v12.8c0 6.4 6.4 12.8 12.8 12.8s12.8-6.4 12.8-12.8v-12.8c0-6.4-6.4-12.8-12.8-12.8zM179.2 160h-6.4c-6.4 6.4-6.4 12.8-6.4 19.2 25.6 44.8 70.4 70.4 121.6 70.4 6.4 0 12.8-6.4 12.8-12.8s-6.4-12.8-12.8-12.8c-38.4 0-76.8-19.2-96-57.6 0-6.4-6.4-6.4-12.8-6.4zM736 12.8c-70.4 0-128 57.6-128 128s57.6 128 128 128 128-57.6 128-128-57.6-128-128-128z m0 192c-38.4 0-70.4-32-70.4-70.4 0-38.4 32-70.4 70.4-70.4s70.4 32 70.4 70.4c0 38.4-32 70.4-70.4 70.4z"  horiz-adv-x="1024" />

    
    <glyph glyph-name="sun" unicode="&#58905;" d="M518.4 83.2c-166.4 0-307.2 134.4-307.2 307.2 0 166.4 134.4 307.2 307.2 307.2s307.2-134.4 307.2-307.2c0-172.8-134.4-307.2-307.2-307.2z m0 550.4c-134.4 0-249.6-108.8-249.6-249.6 0-134.4 108.8-249.6 249.6-249.6 134.4 0 249.6 108.8 249.6 249.6s-108.8 249.6-249.6 249.6zM364.8 480h-6.4c-6.4 6.4-6.4 12.8-6.4 19.2 32 51.2 83.2 83.2 140.8 83.2 6.4 0 12.8-6.4 12.8-12.8s-6.4-12.8-12.8-12.8c-51.2 0-96-25.6-115.2-70.4-6.4-6.4-12.8-6.4-12.8-6.4zM339.2 403.2c-6.4 0-12.8 6.4-12.8 12.8 0 12.8 0 19.2 6.4 32 0 6.4 12.8 12.8 19.2 12.8 6.4 0 12.8-6.4 12.8-19.2 0-12.8-6.4-12.8-6.4-25.6 0-6.4-6.4-12.8-19.2-12.8zM531.2-96c-12.8 0-25.6 12.8-25.6 25.6v83.2c0 12.8 12.8 25.6 25.6 25.6s25.6-12.8 25.6-25.6v-83.2c6.4-12.8-6.4-25.6-25.6-25.6zM531.2 723.2c-12.8 0-25.6 12.8-25.6 25.6v83.2c0 12.8 12.8 25.6 25.6 25.6s25.6-12.8 25.6-25.6v-83.2c6.4-12.8-6.4-25.6-25.6-25.6zM198.4 38.4c-6.4 0-12.8 0-19.2 6.4-12.8 12.8-12.8 32 0 38.4l64 64c12.8 12.8 32 12.8 38.4 0 12.8-12.8 12.8-32 0-38.4l-64-64c-6.4-6.4-12.8-6.4-19.2-6.4zM780.8 614.4c-6.4 0-12.8 0-19.2 6.4-12.8 12.8-12.8 32 0 38.4l64 64c12.8 12.8 32 12.8 38.4 0 12.8-12.8 12.8-32 0-38.4l-64-64c-6.4 0-12.8-6.4-19.2-6.4zM262.4 614.4c-6.4 0-12.8 0-19.2 6.4l-64 64c-12.8 12.8-12.8 32 0 38.4 12.8 12.8 32 12.8 38.4 0l64-64c12.8-12.8 12.8-32 0-38.4-6.4 0-12.8-6.4-19.2-6.4zM838.4 38.4c-6.4 0-12.8 0-19.2 6.4l-64 64c-12.8 12.8-12.8 32 0 38.4 12.8 12.8 32 12.8 38.4 0l64-64c12.8-12.8 12.8-32 0-38.4 0-6.4-12.8-6.4-19.2-6.4zM147.2 345.6h-83.2c-12.8 0-25.6 12.8-25.6 25.6s12.8 25.6 25.6 25.6h83.2c12.8 0 25.6-12.8 25.6-25.6s-12.8-25.6-25.6-25.6zM966.4 345.6h-83.2c-12.8 0-25.6 12.8-25.6 25.6s12.8 25.6 25.6 25.6h83.2c12.8 0 25.6-12.8 25.6-25.6s-12.8-25.6-25.6-25.6z"  horiz-adv-x="1024" />

    
    <glyph glyph-name="target" unicode="&#58906;" d="M518.4 38.4c-192 0-352 160-352 352s160 352 352 352 352-160 352-352-160-352-352-352z m0 646.4c-160 0-294.4-134.4-294.4-294.4 0-160 134.4-294.4 294.4-294.4 160 0 294.4 134.4 294.4 294.4 0 166.4-134.4 294.4-294.4 294.4zM345.6 544c-6.4 0-6.4 0-12.8 6.4s-6.4 12.8 0 19.2c25.6 25.6 64 44.8 102.4 57.6 6.4 0 12.8 0 19.2-12.8 0-6.4 0-12.8-12.8-19.2-32-6.4-64-25.6-89.6-51.2h-6.4zM288 454.4s-6.4 0 0 0c-12.8 6.4-19.2 12.8-12.8 19.2 6.4 12.8 6.4 25.6 12.8 32 6.4 6.4 12.8 12.8 19.2 6.4 6.4-6.4 12.8-12.8 6.4-19.2-6.4-6.4-6.4-19.2-12.8-32 0-6.4-6.4-6.4-12.8-6.4zM524.8 595.2c-12.8 0-25.6 12.8-25.6 25.6v198.4c0 12.8 12.8 25.6 25.6 25.6s32-12.8 32-25.6v-198.4c-6.4-12.8-19.2-25.6-32-25.6zM524.8-83.2c-12.8 0-25.6 12.8-25.6 25.6v198.4c0 12.8 12.8 25.6 25.6 25.6s32-12.8 32-25.6v-198.4c-6.4-12.8-19.2-25.6-32-25.6zM953.6 345.6h-198.4c-12.8 0-32 12.8-32 25.6s12.8 25.6 32 25.6h198.4c12.8 0 25.6-12.8 25.6-25.6s-12.8-25.6-25.6-25.6zM275.2 345.6h-198.4c-12.8 0-25.6 12.8-25.6 25.6s12.8 25.6 25.6 25.6h198.4c12.8 0 32-12.8 32-25.6-6.4-12.8-19.2-25.6-32-25.6z"  horiz-adv-x="1024" />

    
    <glyph glyph-name="temperature" unicode="&#58907;" d="M512-89.6c-134.4 0-243.2 108.8-243.2 243.2 0 89.6 64 160 108.8 198.4v371.2c0 76.8 64 134.4 134.4 134.4 76.8 0 134.4-64 134.4-134.4v-371.2c70.4-44.8 102.4-108.8 102.4-198.4 6.4-134.4-102.4-243.2-236.8-243.2z m0 889.6c-44.8 0-76.8-38.4-76.8-76.8v-384c0-12.8-6.4-19.2-12.8-25.6-44.8-25.6-89.6-83.2-89.6-160 0-102.4 83.2-185.6 185.6-185.6 102.4 0 185.6 83.2 185.6 185.6 0 51.2-12.8 121.6-89.6 160-6.4 6.4-12.8 12.8-12.8 25.6v390.4c-12.8 38.4-44.8 70.4-89.6 70.4zM512-6.4c-6.4 0-12.8 6.4-12.8 12.8s6.4 12.8 12.8 12.8c51.2 0 102.4 32 121.6 83.2 0 6.4 12.8 12.8 19.2 6.4 6.4 0 12.8-12.8 6.4-19.2-19.2-57.6-76.8-96-147.2-96zM659.2 121.6c-6.4 0-12.8 6.4-12.8 12.8v12.8c0 6.4 6.4 12.8 12.8 12.8s12.8-6.4 12.8-12.8v-12.8c0-6.4-6.4-12.8-12.8-12.8zM492.8 390.4h-70.4c-6.4 0-12.8 6.4-12.8 12.8s6.4 12.8 12.8 12.8h70.4c6.4 0 12.8-6.4 12.8-12.8s-6.4-12.8-12.8-12.8zM492.8 448h-70.4c-6.4 0-12.8 6.4-12.8 12.8s6.4 12.8 12.8 12.8h70.4c6.4 0 12.8-6.4 12.8-12.8s-6.4-12.8-12.8-12.8zM492.8 588.8h-70.4c-6.4 0-12.8 6.4-12.8 12.8s6.4 12.8 12.8 12.8h70.4c6.4 0 12.8-6.4 12.8-12.8s-6.4-12.8-12.8-12.8zM492.8 646.4h-70.4c-6.4 0-12.8 6.4-12.8 12.8s6.4 12.8 12.8 12.8h70.4c6.4 0 12.8-6.4 12.8-12.8s-6.4-12.8-12.8-12.8zM531.2 518.4h-115.2c-6.4 0-12.8 6.4-12.8 12.8s6.4 12.8 12.8 12.8h115.2c6.4 0 12.8-6.4 12.8-12.8s0-12.8-12.8-12.8z"  horiz-adv-x="1024" />

    
    <glyph glyph-name="timer" unicode="&#58908;" d="M512-89.6c-243.2 0-435.2 198.4-435.2 435.2 0 243.2 198.4 435.2 435.2 435.2s435.2-198.4 435.2-435.2c0-236.8-192-435.2-435.2-435.2z m0 812.8c-211.2 0-377.6-172.8-377.6-377.6 0-211.2 172.8-377.6 377.6-377.6s377.6 172.8 377.6 377.6c0 211.2-166.4 377.6-377.6 377.6zM358.4 57.6h-6.4c-102.4 57.6-166.4 166.4-166.4 288 0 6.4 6.4 12.8 12.8 12.8s12.8-6.4 12.8-12.8c0-108.8 57.6-211.2 153.6-262.4 6.4-6.4 6.4-12.8 6.4-19.2-6.4 0-6.4-6.4-12.8-6.4zM441.6 19.2c-6.4 0-6.4 0 0 0-12.8 0-12.8 6.4-19.2 6.4-6.4 0-12.8 12.8-6.4 19.2 0 6.4 12.8 12.8 19.2 6.4 6.4 0 12.8-6.4 19.2-6.4 6.4 0 12.8-12.8 12.8-19.2-12.8 0-19.2-6.4-25.6-6.4zM902.4 627.2c-6.4 0-12.8 0-19.2 6.4l-76.8 76.8c-12.8 12.8-12.8 32 0 38.4 12.8 12.8 32 12.8 38.4 0l76.8-76.8c12.8-12.8 12.8-32 0-38.4 0-6.4-12.8-6.4-19.2-6.4zM595.2 230.4c-6.4 0-12.8 0-19.2 6.4l-83.2 76.8c-6.4 6.4-12.8 12.8-12.8 19.2v243.2c0 12.8 12.8 25.6 32 25.6 12.8 0 25.6-12.8 25.6-25.6v-230.4l76.8-70.4c12.8-12.8 12.8-32 0-38.4-6.4 0-12.8-6.4-19.2-6.4zM512 742.4c-12.8 0-25.6 12.8-25.6 32v57.6c0 12.8 12.8 25.6 25.6 25.6s32-12.8 32-25.6v-57.6c-6.4-19.2-19.2-32-32-32z"  horiz-adv-x="1024" />

    
    <glyph glyph-name="trash" unicode="&#58909;" d="M716.8-89.6h-428.8c-102.4 0-140.8 19.2-140.8 140.8v467.2c0 12.8 12.8 25.6 25.6 25.6s25.6-12.8 25.6-25.6v-467.2c0-76.8 0-83.2 83.2-83.2h428.8c83.2 0 89.6 0 89.6 83.2v467.2c0 12.8 12.8 25.6 25.6 25.6s25.6-12.8 25.6-25.6v-467.2c12.8-115.2-25.6-140.8-134.4-140.8zM704 672c-12.8 0-25.6 12.8-25.6 25.6v6.4c0 83.2-12.8 89.6-89.6 89.6h-172.8c-76.8 0-83.2-12.8-83.2-89.6v-6.4c0-12.8-12.8-25.6-25.6-25.6s-32 12.8-32 25.6v6.4c0 108.8 32 147.2 140.8 147.2h172.8c121.6 0 147.2-51.2 147.2-147.2v-6.4c0-12.8-12.8-25.6-32-25.6zM332.8 51.2c-6.4 0-12.8 6.4-12.8 12.8v25.6c0 6.4 6.4 12.8 12.8 12.8s12.8-6.4 12.8-12.8v-25.6c0-6.4-6.4-12.8-12.8-12.8zM332.8 153.6c-6.4 0-12.8 6.4-12.8 12.8v243.2c0 6.4 6.4 12.8 12.8 12.8s12.8-6.4 12.8-12.8v-243.2c0-6.4-6.4-12.8-12.8-12.8zM505.6 51.2c-6.4 0-12.8 6.4-12.8 12.8v345.6c0 6.4 6.4 12.8 12.8 12.8s12.8-6.4 12.8-12.8v-345.6c0-6.4-6.4-12.8-12.8-12.8zM678.4 51.2c-6.4 0-12.8 6.4-12.8 12.8v345.6c0 6.4 6.4 12.8 12.8 12.8s12.8-6.4 12.8-12.8v-345.6c0-6.4-6.4-12.8-12.8-12.8zM979.2 601.6c0-64-51.2-121.6-121.6-121.6h-697.6c-64 0-121.6 51.2-121.6 121.6v6.4c0 64 51.2 121.6 121.6 121.6h697.6c64 0 121.6-51.2 121.6-121.6v-6.4z m-57.6 6.4c0 32-25.6 64-64 64h-697.6c-32 0-64-25.6-64-64v-6.4c0-32 25.6-64 64-64h697.6c32 0 64 25.6 64 64v6.4z"  horiz-adv-x="1024" />

    
    <glyph glyph-name="twoblocks" unicode="&#58910;" d="M972.8 505.6c0-57.6-44.8-102.4-102.4-102.4h-723.2c-57.6 0-102.4 44.8-102.4 102.4v249.6c0 57.6 44.8 102.4 102.4 102.4h723.2c57.6 0 102.4-44.8 102.4-102.4v-249.6z m-57.6 249.6c0 25.6-19.2 44.8-44.8 44.8h-723.2c-25.6 0-44.8-19.2-44.8-44.8v-249.6c0-25.6 19.2-44.8 44.8-44.8h723.2c25.6 0 44.8 19.2 44.8 44.8v249.6zM972.8 12.8c0-57.6-44.8-102.4-102.4-102.4h-723.2c-57.6 0-102.4 44.8-102.4 102.4v249.6c0 57.6 44.8 102.4 102.4 102.4h723.2c57.6 0 102.4-44.8 102.4-102.4v-249.6z m-57.6 249.6c0 25.6-19.2 44.8-44.8 44.8h-723.2c-25.6 0-44.8-19.2-44.8-44.8v-249.6c0-25.6 19.2-44.8 44.8-44.8h723.2c25.6 0 44.8 19.2 44.8 44.8v249.6zM166.4 620.8c-6.4 0-12.8 6.4-12.8 12.8v25.6c0 38.4 32 76.8 70.4 76.8h89.6c6.4 0 12.8-6.4 12.8-12.8s-6.4-12.8-12.8-12.8h-89.6c-25.6 0-38.4-25.6-38.4-44.8v-25.6c-6.4-12.8-12.8-19.2-19.2-19.2zM166.4 569.6c-6.4 0-6.4 0-12.8 6.4 0 0-6.4 6.4-6.4 12.8s0 6.4 6.4 12.8 12.8 6.4 19.2 0c0 0 6.4-6.4 6.4-12.8s0-6.4-6.4-12.8c0 0 0-6.4-6.4-6.4z"  horiz-adv-x="1024" />

    
    <glyph glyph-name="upload" unicode="&#58911;" d="M614.4-6.4h-358.4c-128 0-230.4 102.4-230.4 230.4 0 76.8 44.8 153.6 108.8 198.4 6.4 64 57.6 121.6 121.6 128 64 140.8 198.4 230.4 358.4 230.4 217.6 0 390.4-172.8 390.4-390.4 0-211.2-166.4-384-377.6-390.4-6.4-6.4-12.8-6.4-12.8-6.4z m-345.6 499.2c-44.8 0-83.2-38.4-83.2-83.2 0-12.8-6.4-19.2-12.8-25.6-57.6-32-89.6-89.6-89.6-153.6 0-96 76.8-172.8 172.8-172.8h364.8c179.2 0 326.4 153.6 326.4 332.8 0 185.6-147.2 332.8-332.8 332.8-134.4 0-256-83.2-307.2-211.2-12.8-12.8-19.2-19.2-38.4-19.2 6.4 0 0 0 0 0zM870.4 396.8c-6.4 0-12.8 6.4-12.8 12.8v25.6c0 6.4 6.4 12.8 12.8 19.2 6.4 0 12.8-6.4 12.8-12.8v-25.6c0-12.8-6.4-19.2-12.8-19.2zM844.8 505.6c-6.4 0-12.8 0-12.8 6.4-38.4 70.4-108.8 108.8-185.6 108.8-6.4 0-12.8 6.4-12.8 12.8s6.4 12.8 12.8 12.8c89.6 0 166.4-44.8 211.2-128 6.4-6.4 0-12.8-6.4-19.2l-6.4 6.4zM531.2 134.4c-32 0-64 19.2-76.8 51.2 0 6.4 0 12.8 6.4 19.2 6.4 0 12.8 0 19.2-6.4 6.4-19.2 32-32 51.2-32 25.6 0 57.6 25.6 57.6 57.6v57.6c0 6.4-6.4 12.8 6.4 12.8h64c12.8 0 19.2 0 19.2 6.4s0 12.8-6.4 25.6l-108.8 140.8c-6.4 12.8-19.2 12.8-25.6 12.8-12.8 0-19.2-6.4-25.6-12.8l-108.8-140.8c-6.4-6.4-6.4-19.2-6.4-25.6 0-6.4 6.4-6.4 19.2-6.4h57.6c6.4 0 12.8-6.4 12.8-12.8s-6.4-12.8-12.8-12.8h-57.6c-19.2 0-38.4 6.4-44.8 25.6-6.4 12.8-6.4 32 12.8 51.2l108.8 140.8c12.8 19.2 32 25.6 51.2 25.6 19.2 0 38.4-6.4 51.2-25.6l108.8-140.8c12.8-19.2 19.2-38.4 12.8-51.2-6.4-12.8-25.6-25.6-44.8-25.6h-38.4v-44.8c-19.2-51.2-57.6-89.6-102.4-89.6zM467.2 224c-6.4 0-6.4 0-12.8 6.4 0 0-6.4 6.4-6.4 12.8s0 6.4 6.4 12.8 12.8 6.4 19.2 0c0 0 6.4-6.4 6.4-12.8s0-6.4-6.4-12.8c0-6.4 0-6.4-6.4-6.4z"  horiz-adv-x="1024" />

    
    <glyph glyph-name="unlike" unicode="&#58912;" d="M985.6 403.2c0-57.6-44.8-102.4-102.4-102.4h-134.4c-57.6 0-102.4 44.8-102.4 102.4v320c0 57.6 44.8 102.4 102.4 102.4h134.4c57.6 0 102.4-44.8 102.4-102.4v-320z m-57.6 320c0 25.6-19.2 44.8-44.8 44.8h-134.4c-25.6 0-44.8-19.2-44.8-44.8v-320c0-25.6 19.2-44.8 44.8-44.8h134.4c25.6 0 44.8 19.2 44.8 44.8v320zM857.6 691.2c0-12.8-12.8-25.6-25.6-25.6h-6.4c-12.8 0-25.6 12.8-25.6 25.6v6.4c0 12.8 12.8 25.6 25.6 25.6h6.4c12.8 0 25.6-12.8 25.6-25.6v-6.4zM403.2-57.6c-19.2 0-32 6.4-51.2 12.8-38.4 25.6-83.2 70.4-76.8 153.6 0 25.6 12.8 51.2 25.6 76.8 6.4 19.2 12.8 32 19.2 44.8v19.2c-32 0-64 6.4-89.6 6.4h-89.6c-32 6.4-57.6 19.2-76.8 44.8-19.2 25.6-25.6 57.6-25.6 89.6 6.4 32 19.2 57.6 44.8 76.8-12.8 19.2-12.8 44.8-12.8 64 6.4 25.6 12.8 51.2 32 64-6.4 12.8-6.4 32-6.4 51.2 0 25.6 12.8 44.8 32 57.6-6.4 12.8-6.4 25.6-6.4 38.4 6.4 25.6 25.6 51.2 51.2 64 19.2 6.4 38.4 12.8 64 12.8H435.2c70.4 0 147.2-6.4 172.8-115.2v-390.4c-6.4-25.6-38.4-76.8-70.4-121.6-25.6-38.4-51.2-83.2-57.6-102.4-12.8-38.4-12.8-83.2-12.8-96 0-12.8-6.4-19.2-12.8-25.6 0-12.8-19.2-25.6-51.2-25.6z m-172.8 371.2c38.4 0 76.8-6.4 115.2-6.4h6.4c6.4 0 12.8-6.4 19.2-12.8 6.4-6.4 6.4-12.8 6.4-19.2v-57.6l-19.2-57.6c-6.4-19.2-19.2-44.8-19.2-57.6-6.4-57.6 19.2-83.2 51.2-102.4 6.4-6.4 19.2-6.4 25.6-6.4 0 25.6 0 64 19.2 102.4 12.8 25.6 38.4 64 64 108.8 25.6 38.4 51.2 89.6 57.6 108.8v371.2c-12.8 57.6-44.8 70.4-115.2 70.4h-198.4c-6.4 0-32 0-38.4-6.4h-6.4c-6.4 0-12.8-6.4-12.8-12.8v-12.8c6.4-12.8 6.4-25.6 6.4-38.4 0-12.8-6.4-19.2-19.2-25.6-6.4-6.4-12.8-12.8-19.2-25.6v-19.2c6.4-12.8 6.4-51.2-12.8-64-12.8-6.4-19.2-19.2-19.2-32s0-25.6 6.4-32c12.8-19.2 6.4-51.2-12.8-64-12.8-12.8-25.6-25.6-25.6-44.8 0-12.8 0-32 12.8-44.8 12.8-12.8 25.6-19.2 38.4-19.2h38.4c19.2 6.4 38.4 0 51.2 0zM326.4 697.6c-6.4 0-19.2 0-19.2 12.8v6.4c0 6.4 6.4 6.4 12.8 6.4h6.4c6.4 0 12.8-6.4 12.8-12.8s-6.4-12.8-12.8-12.8zM505.6 665.6c-6.4 0-6.4 0-12.8 6.4-25.6 32-57.6 32-108.8 25.6h-19.2c-6.4 0-12.8 6.4-12.8 12.8s6.4 12.8 12.8 12.8h19.2c51.2 6.4 96 6.4 134.4-38.4 6.4-6.4 6.4-12.8 0-19.2h-12.8z"  horiz-adv-x="1024" />

    
    <glyph glyph-name="user" unicode="&#58913;" d="M512 249.6c-134.4 0-236.8 249.6-236.8 377.6 0 128 108.8 236.8 236.8 236.8s236.8-108.8 236.8-236.8-96-377.6-236.8-377.6z m0 556.8c-96 0-179.2-83.2-179.2-179.2 0-108.8 89.6-320 179.2-320s179.2 204.8 179.2 320c0 102.4-76.8 179.2-179.2 179.2zM390.4 608c-6.4 0-12.8 6.4-12.8 12.8 0 76.8 64 140.8 140.8 140.8 6.4 0 12.8-6.4 12.8-12.8s-6.4-12.8-12.8-12.8c-64 0-115.2-51.2-115.2-115.2 6.4-6.4 0-12.8-12.8-12.8zM396.8 550.4c-6.4 0-6.4 0-12.8 6.4 0 0-6.4 6.4-6.4 12.8s0 6.4 6.4 12.8 12.8 6.4 19.2 0c0 0 6.4-6.4 6.4-12.8s0-6.4-6.4-12.8c0 0 0-6.4-6.4-6.4zM512-96c-83.2 0-345.6 6.4-345.6 115.2 0 153.6 102.4 294.4 243.2 332.8l19.2 6.4 12.8-12.8c44.8-51.2 96-51.2 147.2 0l12.8 12.8 19.2-6.4c140.8-44.8 243.2-185.6 243.2-339.2-6.4-102.4-268.8-108.8-352-108.8z m-102.4 390.4c-108.8-44.8-185.6-153.6-185.6-275.2 0-12.8 89.6-57.6 288-57.6s288 44.8 288 57.6c0 121.6-76.8 230.4-185.6 275.2-32-25.6-64-44.8-102.4-44.8-38.4 0-70.4 12.8-102.4 44.8z"  horiz-adv-x="1024" />

    
    <glyph glyph-name="video" unicode="&#58914;" d="M236.8 505.6c-96 0-179.2 83.2-179.2 179.2 0 96 83.2 179.2 179.2 179.2 96 0 179.2-83.2 179.2-179.2 0-102.4-83.2-179.2-179.2-179.2z m0 300.8c-64 0-121.6-51.2-121.6-121.6 0-64 51.2-121.6 121.6-121.6 64 0 121.6 51.2 121.6 121.6 0 64-57.6 121.6-121.6 121.6zM160 665.6c-6.4 0-12.8 6.4-12.8 12.8v12.8c0 6.4 6.4 12.8 19.2 12.8 6.4 0 12.8-6.4 12.8-19.2v-12.8c-6.4 0-12.8-6.4-19.2-6.4zM172.8 710.4h-6.4c-6.4 6.4-6.4 12.8-6.4 19.2 19.2 25.6 44.8 38.4 76.8 38.4 6.4 0 12.8-6.4 12.8-12.8s-6.4-12.8-12.8-12.8c-19.2 0-44.8-12.8-51.2-25.6-6.4 0-12.8-6.4-12.8-6.4zM640 505.6c-96 0-179.2 83.2-179.2 179.2 0 96 83.2 179.2 179.2 179.2 96 0 179.2-83.2 179.2-179.2 0-102.4-83.2-179.2-179.2-179.2z m0 300.8c-64 0-121.6-51.2-121.6-121.6 0-64 51.2-121.6 121.6-121.6 64 0 121.6 51.2 121.6 121.6 0 64-57.6 121.6-121.6 121.6zM576 710.4h-6.4c-6.4 6.4-6.4 12.8-6.4 19.2 19.2 25.6 44.8 38.4 76.8 38.4 6.4 0 12.8-6.4 12.8-12.8s-6.4-12.8-12.8-12.8c-19.2 0-44.8-12.8-51.2-25.6-6.4 0-12.8-6.4-12.8-6.4zM659.2-96h-537.6c-57.6 0-102.4 38.4-102.4 89.6v377.6c0 57.6 44.8 108.8 102.4 108.8h537.6c57.6 0 102.4-51.2 102.4-102.4V358.4c44.8 19.2 108.8 57.6 153.6 83.2 12.8 6.4 25.6 12.8 38.4 12.8 12.8 0 25.6-6.4 38.4-12.8 19.2-19.2 19.2-44.8 19.2-57.6v-390.4c0-19.2 0-32-12.8-38.4-6.4-6.4-19.2-19.2-38.4-19.2-12.8 0-25.6 6.4-38.4 6.4h-6.4c-57.6 32-115.2 57.6-153.6 76.8v-25.6c0-44.8-44.8-89.6-102.4-89.6z m-537.6 518.4c-25.6 0-44.8-25.6-44.8-51.2v-377.6c0-19.2 19.2-32 44.8-32h537.6c25.6 0 44.8 12.8 44.8 38.4l-6.4 70.4c0 6.4 0 12.8 6.4 19.2 6.4 6.4 12.8 6.4 19.2 6.4 6.4 0 12.8 0 211.2-102.4 0 0 6.4 0 12.8-6.4v390.4 12.8s-6.4 0-6.4-6.4c-198.4-108.8-198.4-108.8-211.2-108.8-6.4 0-12.8 6.4-19.2 6.4-6.4 6.4-6.4 12.8-6.4 19.2l6.4 64c0 25.6-19.2 44.8-44.8 44.8l-544 12.8zM121.6 249.6c-6.4 0-12.8 6.4-12.8 12.8v70.4c0 25.6 25.6 64 51.2 64h121.6c6.4 0 12.8-6.4 12.8-12.8s-6.4-12.8-12.8-12.8h-121.6c-12.8 0-25.6-19.2-25.6-32v-70.4c6.4-12.8 0-19.2-12.8-19.2zM358.4 364.8h-12.8c-6.4 0-12.8 6.4-12.8 12.8s6.4 12.8 12.8 12.8h12.8c6.4 0 12.8-6.4 12.8-12.8s-6.4-12.8-12.8-12.8z"  horiz-adv-x="1024" />

    
    <glyph glyph-name="volume" unicode="&#58915;" d="M832-89.6c-19.2 0-38.4 6.4-70.4 12.8h-6.4c-128 70.4-339.2 179.2-371.2 192h-115.2c-83.2 0-147.2 57.6-147.2 134.4v236.8c0 76.8 70.4 147.2 147.2 147.2h115.2c32 12.8 243.2 128 371.2 198.4 25.6 12.8 44.8 19.2 64 19.2 19.2 0 38.4-6.4 51.2-19.2 25.6-25.6 25.6-70.4 25.6-89.6v-748.8c0-25.6-6.4-44.8-12.8-64-6.4 0-19.2-19.2-51.2-19.2z m-44.8 70.4c19.2-6.4 38.4-12.8 51.2-12.8h6.4s6.4 6.4 6.4 25.6v748.8c0 6.4 0 38.4-6.4 44.8h-12.8c-6.4 0-19.2 0-38.4-12.8-377.6-204.8-384-204.8-396.8-204.8h-121.6c-44.8 0-89.6-44.8-89.6-89.6v-236.8c0-44.8 44.8-76.8 89.6-76.8h121.6c6.4 12.8 19.2 12.8 390.4-185.6zM524.8 544c-6.4 0-12.8 6.4-12.8 12.8s6.4 12.8 12.8 12.8c12.8 6.4 121.6 64 192 96 19.2 6.4 44.8 19.2 64 6.4 12.8-6.4 19.2-25.6 19.2-51.2v-51.2c0-6.4-6.4-12.8-12.8-12.8s-12.8 6.4-12.8 12.8v51.2c0 19.2-6.4 25.6-6.4 25.6s-12.8 6.4-38.4-6.4c-192-96-198.4-96-204.8-96zM787.2 492.8c-6.4 0-12.8 6.4-12.8 12.8v12.8c0 6.4 6.4 12.8 12.8 12.8s12.8-6.4 12.8-12.8v-12.8c0-6.4-6.4-12.8-12.8-12.8zM396.8 147.2c-6.4 0-12.8 6.4-12.8 12.8v428.8c0 6.4 6.4 12.8 12.8 12.8s12.8-6.4 12.8-12.8v-428.8c0-6.4-6.4-12.8-12.8-12.8z"  horiz-adv-x="1024" />

    
    <glyph glyph-name="wallet" unicode="&#58916;" d="M729.6-64h-608c-57.6 0-96 44.8-96 102.4v505.6c0 57.6 38.4 96 96 96h608c57.6 0 102.4-44.8 102.4-96v-134.4c0-12.8-12.8-25.6-25.6-25.6s-25.6 12.8-25.6 25.6v134.4c0 25.6-25.6 38.4-44.8 38.4h-608c-25.6 0-38.4-19.2-38.4-38.4v-505.6c0-25.6 12.8-44.8 38.4-44.8h608c25.6 0 44.8 19.2 44.8 44.8v128c0 12.8 12.8 25.6 25.6 25.6s25.6-12.8 25.6-25.6v-128c6.4-57.6-44.8-102.4-102.4-102.4zM211.2 38.4c-44.8 0-83.2 38.4-83.2 83.2v243.2c0 6.4 6.4 12.8 12.8 12.8s12.8-6.4 12.8-12.8v-243.2c0-32 25.6-57.6 51.2-57.6 6.4 0 12.8-6.4 12.8-12.8 12.8-6.4 6.4-12.8-6.4-12.8zM281.6 38.4h-12.8c-6.4 0-12.8 6.4-12.8 12.8s6.4 12.8 12.8 12.8h12.8c6.4 0 12.8-6.4 12.8-12.8 6.4-6.4 0-12.8-12.8-12.8zM992 249.6c0-57.6-44.8-102.4-102.4-102.4h-204.8c-57.6 0-102.4 44.8-102.4 102.4v57.6c0 57.6 44.8 102.4 102.4 102.4h204.8c57.6 0 102.4-44.8 102.4-102.4v-57.6z m-57.6 64c0 25.6-19.2 44.8-44.8 44.8h-204.8c-25.6 0-44.8-19.2-44.8-44.8v-57.6c0-25.6 19.2-44.8 44.8-44.8h204.8c25.6 0 44.8 19.2 44.8 44.8v57.6zM723.2 281.6m-25.6 0a25.6 25.6 0 1 1 51.2 0 25.6 25.6 0 1 1-51.2 0ZM659.2 588.8c-12.8 0-32 12.8-32 25.6 0 83.2-70.4 153.6-153.6 153.6-83.2 0-153.6-70.4-153.6-153.6 0-12.8-12.8-25.6-25.6-25.6s-32 12.8-32 25.6c0 115.2 96 211.2 211.2 211.2 115.2 0 211.2-96 211.2-211.2 6.4-12.8-6.4-25.6-25.6-25.6z"  horiz-adv-x="1024" />

    
    <glyph glyph-name="washer" unicode="&#58917;" d="M902.4 25.6c0-57.6-44.8-102.4-102.4-102.4h-576c-57.6 0-102.4 44.8-102.4 102.4v723.2c0 57.6 44.8 102.4 102.4 102.4h576c57.6 0 102.4-44.8 102.4-102.4v-723.2z m-57.6 716.8c0 25.6-19.2 44.8-44.8 44.8h-576c-25.6 0-44.8-19.2-44.8-44.8v-723.2c0-25.6 19.2-44.8 44.8-44.8h576c25.6 0 44.8 19.2 44.8 44.8v723.2zM505.6 57.6c-128 0-236.8 108.8-236.8 236.8s108.8 236.8 236.8 236.8 236.8-108.8 236.8-236.8c0-134.4-108.8-236.8-236.8-236.8z m0 441.6c-115.2 0-204.8-96-204.8-204.8 0-115.2 96-204.8 204.8-204.8 115.2 0 204.8 96 204.8 204.8 6.4 108.8-89.6 204.8-204.8 204.8zM441.6 153.6h-6.4c-51.2 25.6-83.2 83.2-83.2 140.8 0 6.4 6.4 12.8 12.8 12.8s12.8-6.4 12.8-12.8c0-51.2 25.6-89.6 70.4-115.2 6.4-6.4 12.8-12.8 6.4-19.2 0-6.4-6.4-6.4-12.8-6.4zM505.6 134.4c-6.4 0-12.8 6.4-12.8 12.8s6.4 12.8 12.8 12.8h25.6c6.4 0 12.8-6.4 19.2-12.8 0-6.4-6.4-12.8-12.8-19.2-12.8 6.4-19.2 6.4-32 6.4zM864 601.6h-716.8c-6.4 0-12.8 6.4-12.8 12.8s6.4 12.8 12.8 12.8h716.8c6.4 0 12.8-6.4 12.8-12.8 6.4-6.4 0-12.8-12.8-12.8zM345.6 684.8h-25.6c-6.4 0-12.8 6.4-12.8 12.8s6.4 12.8 12.8 12.8h25.6c6.4 0 12.8-6.4 12.8-12.8s0-12.8-12.8-12.8zM262.4 684.8h-32c-6.4 0-12.8 6.4-12.8 12.8s6.4 12.8 12.8 12.8h32c6.4 0 12.8-6.4 12.8-12.8s-6.4-12.8-12.8-12.8z"  horiz-adv-x="1024" />

    
    <glyph glyph-name="wi-fi" unicode="&#58918;" d="M512-76.8c-115.2 0-204.8 89.6-204.8 204.8 0 115.2 89.6 204.8 204.8 204.8 115.2 0 204.8-89.6 204.8-204.8 0-115.2-96-204.8-204.8-204.8z m0 352c-83.2 0-147.2-64-147.2-147.2s64-147.2 147.2-147.2c83.2 0 147.2 64 147.2 147.2s-70.4 147.2-147.2 147.2zM428.8 160h-6.4c-6.4 6.4-6.4 12.8-6.4 19.2 19.2 32 57.6 57.6 96 57.6 6.4 0 12.8-6.4 12.8-12.8s-6.4-12.8-12.8-12.8c-32 0-57.6-12.8-70.4-38.4l-12.8-12.8zM416 89.6c-6.4 0-12.8 6.4-12.8 12.8s-6.4 19.2-6.4 25.6c0 6.4 6.4 12.8 12.8 12.8s12.8-6.4 12.8-12.8v-19.2c12.8-6.4 6.4-19.2-6.4-19.2 6.4 0 0 0 0 0zM684.8 384c-6.4 0-12.8 0-12.8 6.4-51.2 32-102.4 44.8-160 44.8-57.6 0-108.8-12.8-160-44.8-12.8-6.4-32-6.4-38.4 6.4-6.4 12.8-6.4 32 6.4 38.4 57.6 32 121.6 51.2 192 51.2s134.4-19.2 192-57.6c12.8-6.4 19.2-25.6 6.4-38.4-6.4 0-12.8-6.4-25.6-6.4zM780.8 531.2c-6.4 0-12.8 0-12.8 6.4-76.8 51.2-166.4 76.8-256 76.8s-172.8-25.6-249.6-70.4c-12.8-6.4-32-6.4-38.4 12.8-6.4 12.8-6.4 32 12.8 38.4 83.2 51.2 179.2 76.8 275.2 76.8 102.4 0 204.8-25.6 288-83.2 12.8-6.4 19.2-25.6 6.4-38.4-6.4-12.8-12.8-19.2-25.6-19.2zM864 684.8c-6.4 0-12.8 0-12.8 6.4-102.4 64-224 96-339.2 96-121.6 0-236.8-32-339.2-89.6-12.8-6.4-32-6.4-38.4 12.8-6.4 12.8-6.4 32 12.8 38.4 108.8 64 236.8 102.4 364.8 102.4 134.4 0 262.4-38.4 371.2-102.4 12.8-6.4 19.2-25.6 12.8-38.4-12.8-19.2-19.2-25.6-32-25.6z"  horiz-adv-x="1024" />

    
    <glyph glyph-name="delete" unicode="&#58919;" d="M768 12.8c-32 0-64 12.8-89.6 38.4l-166.4 166.4-166.4-166.4c-25.6-25.6-51.2-38.4-89.6-38.4s-64 12.8-89.6 38.4c-25.6 25.6-38.4 51.2-38.4 89.6 0 32 12.8 64 38.4 89.6l166.4 166.4-160 160c-25.6 25.6-38.4 51.2-38.4 89.6 0 32 12.8 64 38.4 89.6 25.6 25.6 51.2 38.4 89.6 38.4 32 0 64-12.8 89.6-38.4l160-160 160 160c25.6 25.6 51.2 38.4 89.6 38.4 32 0 64-12.8 89.6-38.4 25.6-25.6 38.4-51.2 38.4-89.6 0-32-12.8-64-38.4-89.6l-160-160 166.4-166.4c25.6-25.6 38.4-51.2 38.4-89.6 0-32-12.8-64-38.4-89.6-25.6-25.6-57.6-38.4-89.6-38.4z m-256 275.2c6.4 0 12.8 0 19.2-6.4l185.6-185.6c12.8-12.8 25.6-19.2 44.8-19.2 19.2 0 32 6.4 44.8 19.2 12.8 12.8 19.2 25.6 19.2 44.8s-6.4 32-19.2 44.8l-185.6 185.6c-12.8 12.8-12.8 32 0 38.4l179.2 179.2c12.8 12.8 19.2 25.6 19.2 44.8s-6.4 32-19.2 44.8c-12.8 12.8-25.6 19.2-44.8 19.2-19.2 0-32-6.4-44.8-19.2l-179.2-179.2c-12.8-12.8-32-12.8-38.4 0l-179.2 179.2c-12.8 12.8-25.6 19.2-44.8 19.2s-32-6.4-44.8-19.2c-12.8-12.8-19.2-25.6-19.2-44.8s6.4-32 19.2-44.8l179.2-179.2c12.8-12.8 12.8-32 0-38.4l-185.6-185.6c-12.8-12.8-19.2-25.6-19.2-44.8 0-19.2 6.4-32 19.2-44.8 12.8-12.8 25.6-19.2 44.8-19.2s32 6.4 44.8 19.2l185.6 185.6c6.4 0 12.8 6.4 19.2 6.4z"  horiz-adv-x="1024" />

    
    <glyph glyph-name="cursoure" unicode="&#58920;" d="M723.2 678.4c-6.4 0-12.8 6.4-12.8 12.8s0 12.8 12.8 19.2l32 6.4c6.4 0 12.8 0 19.2-12.8 0-6.4 0-12.8-12.8-19.2l-38.4-6.4zM422.4 595.2c-6.4 0-12.8 6.4-12.8 12.8s0 12.8 12.8 19.2l236.8 64c6.4 0 12.8 0 19.2-12.8 0-6.4 0-12.8-12.8-19.2l-243.2-64zM236.8-83.2c-19.2 0-38.4 6.4-51.2 25.6l-108.8 108.8c-57.6 57.6-12.8 96 6.4 115.2 134.4 128 198.4 185.6 224 217.6l-121.6 76.8c-44.8 25.6-64 64-57.6 108.8 6.4 57.6 51.2 102.4 115.2 121.6l576 153.6c64 19.2 115.2 0 147.2-38.4 25.6-32 32-76.8 19.2-128l-153.6-576c-19.2-76.8-83.2-108.8-140.8-108.8-44.8 0-76.8 19.2-96 57.6l-64 121.6c-32-32-96-96-230.4-224-19.2-12.8-38.4-32-64-32z m-134.4 192s0-6.4 12.8-12.8l108.8-108.8c6.4-6.4 12.8-6.4 12.8-6.4s6.4 0 19.2 19.2c70.4 70.4 249.6 243.2 256 249.6 6.4 6.4 12.8 12.8 25.6 6.4 6.4 0 19.2-6.4 25.6-12.8l83.2-153.6c6.4-19.2 32-19.2 38.4-19.2 32 0 70.4 19.2 83.2 64l153.6 576c6.4 32 6.4 64-6.4 76.8-12.8 19.2-32 19.2-51.2 19.2-12.8 0-25.6 0-38.4-6.4l-576-153.6c-44.8-12.8-70.4-44.8-70.4-70.4 0-25.6 6.4-38.4 32-51.2l153.6-96c6.4-6.4 12.8-12.8 12.8-19.2 0-6.4 0-19.2-12.8-25.6-6.4-6.4-185.6-172.8-249.6-236.8-12.8-32-12.8-38.4-12.8-38.4z"  horiz-adv-x="1024" />

    
    <glyph glyph-name="desctop" unicode="&#58921;" d="M716.8-70.4h-390.4c-12.8 0-25.6 12.8-25.6 25.6s12.8 25.6 25.6 25.6h390.4c12.8 0 25.6-12.8 25.6-25.6s-12.8-25.6-25.6-25.6zM985.6 204.8c0-57.6-44.8-102.4-102.4-102.4h-748.8c-57.6 0-102.4 44.8-102.4 102.4v537.6c0 57.6 44.8 102.4 102.4 102.4h748.8c57.6 0 102.4-44.8 102.4-102.4v-537.6z m-57.6 531.2c0 25.6-19.2 44.8-44.8 44.8h-748.8c-25.6 0-44.8-19.2-44.8-44.8v-537.6c0-25.6 19.2-44.8 44.8-44.8h748.8c25.6 0 44.8 19.2 44.8 44.8v537.6zM960 262.4h-889.6c-6.4 0-12.8 6.4-12.8 12.8s6.4 12.8 12.8 12.8h889.6c6.4 0 12.8-6.4 12.8-12.8s-6.4-12.8-12.8-12.8zM960 678.4h-889.6c-6.4 0-12.8 6.4-12.8 12.8s6.4 12.8 12.8 12.8h889.6c6.4 0 12.8-6.4 12.8-12.8s-6.4-12.8-12.8-12.8zM460.8 467.2c-12.8 6.4-19.2 12.8-12.8 19.2l6.4 12.8c0 6.4 12.8 12.8 19.2 6.4 6.4 0 12.8-12.8 6.4-19.2l-6.4-12.8s-6.4-6.4-12.8-6.4zM409.6 326.4c-6.4 0-6.4 0 0 0-12.8 6.4-19.2 12.8-12.8 19.2l38.4 102.4c0 6.4 12.8 12.8 19.2 6.4 6.4 0 12.8-12.8 6.4-19.2l-38.4-102.4c-6.4 0-12.8-6.4-12.8-6.4zM345.6 428.8c-12.8 6.4-19.2 12.8-12.8 19.2l57.6 153.6c0 6.4 12.8 12.8 19.2 6.4 6.4 0 12.8-12.8 6.4-19.2l-57.6-153.6c0-6.4-6.4-6.4-12.8-6.4zM320 352c-12.8 6.4-19.2 12.8-12.8 19.2l6.4 25.6c0 6.4 12.8 12.8 19.2 6.4 6.4 0 12.8-12.8 6.4-19.2l-6.4-25.6s-6.4-6.4-12.8-6.4z"  horiz-adv-x="1024" />

    
    <glyph glyph-name="diagram" unicode="&#58922;" d="M512-76.8c-256 0-460.8 204.8-460.8 460.8 0 121.6 51.2 236.8 134.4 326.4 89.6 89.6 204.8 134.4 326.4 134.4 96 0 185.6-25.6 262.4-76.8 128-83.2 204.8-230.4 204.8-384v-32c-19.2-243.2-224-428.8-467.2-428.8z m0 864c-108.8 0-211.2-44.8-288-115.2-76.8-76.8-121.6-179.2-121.6-288 0-224 179.2-403.2 403.2-403.2 211.2 0 390.4 166.4 403.2 377.6v25.6c0 134.4-64 256-179.2 332.8-57.6 44.8-134.4 70.4-217.6 70.4zM166.4 345.6c-6.4 0-12.8 6.4-12.8 12.8v25.6c0 6.4 6.4 12.8 12.8 12.8s12.8-6.4 12.8-12.8v-25.6c0-6.4-6.4-12.8-12.8-12.8zM294.4 108.8h-6.4c-57.6 44.8-96 102.4-121.6 166.4 0 6.4 0 12.8 6.4 19.2 6.4 0 12.8 0 19.2-6.4 19.2-64 57.6-115.2 108.8-153.6 6.4-6.4 6.4-12.8 0-19.2 6.4 0 0-6.4-6.4-6.4zM512 371.2c-6.4 0-6.4 0-12.8 6.4l-300.8 300.8c-6.4 6.4-6.4 12.8 0 19.2 6.4 6.4 12.8 6.4 19.2 0l294.4-294.4 288 300.8c6.4 6.4 12.8 6.4 19.2 0 6.4-6.4 6.4-12.8 0-19.2l-294.4-313.6h-12.8zM512 371.2c-6.4 0-12.8 6.4-12.8 12.8s6.4 12.8 12.8 12.8l416 12.8c6.4 0 12.8-6.4 12.8-12.8s-6.4-12.8-12.8-12.8l-416-12.8z"  horiz-adv-x="1024" />

    
    <glyph glyph-name="diamond" unicode="&#58923;" d="M512-76.8c-19.2 0-44.8 12.8-57.6 32l-403.2 537.6c-25.6 32-25.6 89.6 0 128l115.2 166.4c19.2 32 70.4 57.6 115.2 57.6h467.2c44.8 0 89.6-25.6 115.2-57.6l115.2-166.4c25.6-38.4 25.6-89.6 0-128l-403.2-537.6c-19.2-19.2-44.8-32-64-32z m-236.8 864c-25.6 0-57.6-12.8-64-32l-115.2-166.4c-12.8-12.8-12.8-44.8 0-57.6l403.2-537.6c6.4-12.8 12.8-12.8 25.6 0l403.2 537.6c12.8 12.8 12.8 44.8 0 57.6l-115.2 166.4c-12.8 19.2-44.8 32-64 32h-473.6zM966.4 544h-876.8c-6.4 0-12.8 6.4-12.8 12.8s6.4 12.8 12.8 12.8h876.8c6.4 0 12.8-6.4 12.8-12.8 6.4-6.4 0-12.8-12.8-12.8zM486.4 544c-6.4 0-6.4 0-12.8 6.4l-268.8 243.2c-6.4 6.4-6.4 12.8 0 19.2 6.4 6.4 12.8 6.4 19.2 0l268.8-243.2c6.4-6.4 6.4-12.8 0-19.2 6.4 0 0-6.4-6.4-6.4zM524.8 544c-6.4 0-6.4 0-12.8 6.4s-6.4 12.8 0 19.2l140.8 128c6.4 6.4 12.8 6.4 19.2 0 6.4-6.4 6.4-12.8 0-19.2l-140.8-128s0-6.4-6.4-6.4zM704 710.4c-6.4 0-6.4 0-12.8 6.4s-6.4 12.8 0 19.2l12.8 6.4c6.4 6.4 12.8 6.4 19.2 0 6.4-6.4 6.4-12.8 0-19.2l-12.8-6.4c0-6.4 0-6.4-6.4-6.4zM748.8 748.8c-6.4 0-6.4 0-12.8 6.4s-6.4 12.8 0 19.2l44.8 38.4c6.4 6.4 12.8 6.4 19.2 0 6.4-6.4 6.4-12.8 0-19.2l-44.8-38.4c0-6.4 0-6.4-6.4-6.4zM300.8 499.2c-6.4 0-12.8 6.4-12.8 6.4l-19.2 44.8c0 6.4 0 12.8 6.4 19.2 6.4 0 12.8 0 19.2-6.4l19.2-44.8c6.4-6.4 0-19.2-12.8-19.2 6.4 0 0 0 0 0zM320 448c-6.4 0-12.8 6.4-12.8 6.4l-6.4 12.8c0 6.4 0 12.8 6.4 19.2 6.4 0 12.8 0 19.2-6.4l6.4-12.8c6.4-6.4 0-12.8-12.8-19.2 6.4 0 0 0 0 0zM512-38.4c-6.4 0-12.8 6.4-12.8 6.4l-172.8 435.2c0 6.4 0 12.8 6.4 19.2 6.4 0 12.8 0 19.2-6.4l172.8-441.6c6.4 0 0-6.4-12.8-12.8 6.4 0 0 0 0 0zM512-38.4s-6.4 0 0 0c-12.8 6.4-19.2 12.8-12.8 19.2l224 576c0 6.4 12.8 12.8 19.2 6.4 6.4 0 12.8-12.8 6.4-19.2l-224-576s-6.4-6.4-12.8-6.4z"  horiz-adv-x="1024" />

    
    <glyph glyph-name="document" unicode="&#58924;" d="M780.8-76.8h-550.4c-57.6 0-96 51.2-96 102.4v723.2c0 57.6 44.8 96 96 96h288c6.4 0 12.8-6.4 19.2-6.4l332.8-326.4c6.4-6.4 12.8-12.8 12.8-19.2v-460.8c0-64-51.2-108.8-102.4-108.8z m-550.4 864c-25.6 0-38.4-19.2-38.4-38.4v-723.2c0-25.6 12.8-44.8 38.4-44.8h550.4c25.6 0 44.8 19.2 44.8 44.8v448l-320 313.6h-275.2zM851.2 467.2h-262.4c-44.8 0-83.2 44.8-83.2 89.6v262.4 12.8h12.8l339.2-332.8c6.4-6.4 6.4-12.8 0-12.8 6.4-12.8 0-19.2-6.4-19.2z m-313.6 313.6v-224c0-32 19.2-57.6 51.2-57.6h224l-275.2 281.6zM396.8 339.2h-115.2c-6.4 0-12.8 6.4-12.8 12.8s6.4 12.8 12.8 12.8h115.2c6.4 0 12.8-6.4 12.8-12.8s0-12.8-12.8-12.8zM601.6 339.2h-140.8c-6.4 0-12.8 6.4-12.8 12.8s6.4 12.8 12.8 12.8h140.8c6.4 0 12.8-6.4 12.8-12.8s-6.4-12.8-12.8-12.8zM716.8 339.2h-57.6c-6.4 0-12.8 6.4-12.8 12.8s6.4 12.8 12.8 12.8h57.6c6.4 0 12.8-6.4 12.8-12.8s-6.4-12.8-12.8-12.8zM339.2 268.8h-57.6c-6.4 0-12.8 6.4-12.8 12.8s6.4 12.8 12.8 12.8h57.6c6.4 0 12.8-6.4 12.8-12.8 6.4-6.4 0-12.8-12.8-12.8zM512 268.8h-115.2c-6.4 0-12.8 6.4-12.8 12.8s6.4 12.8 12.8 12.8h115.2c6.4 0 12.8-6.4 12.8-12.8 6.4-6.4 0-12.8-12.8-12.8zM716.8 268.8h-140.8c-6.4 0-12.8 6.4-12.8 12.8s6.4 12.8 12.8 12.8h140.8c6.4 0 12.8-6.4 12.8-12.8s-6.4-12.8-12.8-12.8zM428.8 185.6h-140.8c-6.4 0-12.8 6.4-12.8 12.8s6.4 12.8 12.8 12.8h140.8c6.4 0 12.8-6.4 12.8-12.8s-6.4-12.8-12.8-12.8zM627.2 185.6h-140.8c-6.4 0-12.8 6.4-12.8 12.8s6.4 12.8 12.8 12.8h140.8c6.4 0 12.8-6.4 12.8-12.8s0-12.8-12.8-12.8zM716.8 185.6h-25.6c-6.4 0-12.8 6.4-12.8 12.8s6.4 12.8 12.8 12.8h25.6c6.4 0 12.8-6.4 12.8-12.8s-6.4-12.8-12.8-12.8zM339.2 108.8h-57.6c-6.4 0-12.8 6.4-12.8 12.8s6.4 12.8 12.8 12.8h57.6c6.4 0 12.8-6.4 12.8-12.8s0-12.8-12.8-12.8zM499.2 108.8h-102.4c-6.4 0-12.8 6.4-12.8 12.8s6.4 12.8 12.8 12.8h102.4c6.4 0 12.8-6.4 12.8-12.8s-6.4-12.8-12.8-12.8z"  horiz-adv-x="1024" />

    
    <glyph glyph-name="doodle" unicode="&#58925;" d="M787.2-83.2c-57.6 0-108.8 51.2-108.8 102.4v44.8c0 19.2-6.4 25.6-25.6 25.6h-6.4c-12.8 0-38.4-6.4-38.4-25.6v-44.8c0-51.2-38.4-102.4-89.6-102.4h-6.4c-57.6 0-89.6 57.6-89.6 102.4v44.8c0 25.6-25.6 25.6-38.4 25.6h-6.4c-19.2 0-44.8-6.4-44.8-25.6v-44.8c0-51.2-32-102.4-83.2-102.4h-6.4c-51.2 0-96 51.2-96 102.4v486.4c0 192 160 345.6 358.4 345.6h25.6c192 0 352-153.6 352-345.6v-486.4c-6.4-44.8-44.8-102.4-96-102.4z m-140.8 230.4c57.6 0 89.6-32 89.6-83.2v-44.8c0-19.2 25.6-44.8 44.8-44.8h6.4c19.2 0 38.4 25.6 38.4 44.8v486.4c0 160-128 288-294.4 288h-25.6c-166.4 0-300.8-128-300.8-288v-486.4c0-19.2 19.2-44.8 38.4-44.8h6.4c19.2 0 25.6 25.6 25.6 44.8v44.8c0 51.2 51.2 83.2 102.4 83.2h6.4c57.6 0 96-32 96-83.2v-44.8c0-19.2 19.2-44.8 32-44.8h6.4c19.2 0 32 25.6 32 44.8v44.8c0 51.2 38.4 83.2 96 83.2zM518.4 736h-12.8c-6.4 0-12.8 6.4-12.8 12.8s6.4 12.8 12.8 12.8h12.8c6.4 0 12.8-6.4 12.8-12.8s-6.4-12.8-12.8-12.8zM761.6 320c-6.4 0-12.8 6.4-12.8 12.8v172.8c0 102.4-70.4 192-172.8 224-6.4 0-12.8 12.8-12.8 19.2 0 6.4 12.8 12.8 19.2 12.8 115.2-32 198.4-128 198.4-249.6v-172.8c0-12.8-6.4-19.2-19.2-19.2zM339.2 396.8c-44.8 0-83.2 38.4-83.2 83.2s38.4 83.2 83.2 83.2c44.8 0 83.2-38.4 83.2-83.2s-38.4-83.2-83.2-83.2z m0 134.4c-32 0-57.6-25.6-57.6-57.6s25.6-57.6 57.6-57.6 57.6 25.6 57.6 57.6-32 57.6-57.6 57.6zM550.4 396.8c-44.8 0-83.2 38.4-83.2 83.2s38.4 83.2 83.2 83.2c44.8 0 83.2-38.4 83.2-83.2s-38.4-83.2-83.2-83.2z m0 134.4c-32 0-57.6-25.6-57.6-57.6s25.6-57.6 57.6-57.6 57.6 25.6 57.6 57.6-32 57.6-57.6 57.6z"  horiz-adv-x="1024" />

    
    <glyph glyph-name="download" unicode="&#58926;" d="M614.4-6.4h-358.4c-128 0-230.4 102.4-230.4 230.4 0 76.8 44.8 153.6 108.8 198.4 6.4 64 57.6 121.6 121.6 128 64 140.8 198.4 230.4 358.4 230.4 217.6 0 390.4-172.8 390.4-390.4 0-211.2-166.4-384-377.6-390.4-6.4-6.4-12.8-6.4-12.8-6.4z m-345.6 499.2c-44.8 0-83.2-38.4-83.2-83.2 0-12.8-6.4-19.2-12.8-25.6-57.6-32-89.6-89.6-89.6-153.6 0-96 76.8-172.8 172.8-172.8h364.8c179.2 0 326.4 153.6 326.4 332.8 0 185.6-147.2 332.8-332.8 332.8-134.4 0-256-83.2-307.2-211.2-12.8-12.8-19.2-19.2-38.4-19.2 6.4 0 0 0 0 0zM870.4 396.8c-6.4 0-12.8 6.4-12.8 12.8v25.6c0 6.4 6.4 12.8 12.8 19.2 6.4 0 12.8-6.4 12.8-12.8v-25.6c0-12.8-6.4-19.2-12.8-19.2zM844.8 505.6c-6.4 0-12.8 0-12.8 6.4-38.4 70.4-108.8 108.8-185.6 108.8-6.4 0-12.8 6.4-12.8 12.8s6.4 12.8 12.8 12.8c89.6 0 166.4-44.8 211.2-128 6.4-6.4 0-12.8-6.4-19.2l-6.4 6.4zM531.2 134.4c-19.2 0-38.4 6.4-51.2 25.6l-108.8 140.8c-12.8 19.2-19.2 38.4-12.8 51.2 6.4 12.8 25.6 25.6 44.8 25.6h51.2v44.8c0 44.8 32 83.2 76.8 83.2 32 0 57.6-19.2 70.4-51.2 0-6.4 0-12.8-6.4-19.2-6.4 0-19.2 0-19.2 6.4-6.4 19.2-19.2 32-44.8 32-25.6 0-44.8-25.6-44.8-57.6v-57.6c0-6.4-12.8-12.8-19.2-12.8h-64c-12.8 0-19.2 0-19.2-6.4s0-12.8 6.4-19.2l108.8-140.8c6.4-12.8 19.2-12.8 25.6-12.8 12.8 0 19.2 6.4 25.6 12.8l108.8 140.8c6.4 6.4 6.4 19.2 6.4 19.2 0 6.4-6.4 6.4-19.2 6.4h-57.6c-6.4 0-12.8 6.4-12.8 12.8s6.4 12.8 12.8 12.8h57.6c19.2 0 38.4-6.4 44.8-25.6 6.4-12.8 6.4-32-12.8-51.2l-108.8-140.8c0-6.4-19.2-19.2-38.4-19.2zM595.2 390.4c-6.4 0-6.4 0-12.8 6.4 0 0-6.4 6.4-6.4 12.8s0 6.4 6.4 12.8 12.8 6.4 19.2 0c0 0 6.4-6.4 6.4-12.8s0-6.4-6.4-12.8l-6.4-6.4z"  horiz-adv-x="1024" />

    
    <glyph glyph-name="drop" unicode="&#58927;" d="M326.4 147.2c-6.4 0-12.8 6.4-12.8 6.4 0 6.4 0 6.4-6.4 12.8v12.8c0 6.4 0 12.8 12.8 19.2 6.4 0 12.8 0 19.2-12.8V166.4c0-6.4 0-12.8-12.8-19.2zM486.4 12.8c-64 6.4-121.6 44.8-153.6 96-6.4 6.4 0 12.8 6.4 19.2 6.4 6.4 12.8 0 19.2-6.4 32-44.8 76.8-76.8 134.4-83.2 6.4 0 12.8-6.4 12.8-19.2 0 0-6.4-6.4-19.2-6.4zM512-89.6c-172.8 0-307.2 140.8-307.2 307.2 0 108.8 160 467.2 198.4 550.4 25.6 51.2 64 83.2 108.8 83.2 25.6 0 70.4-12.8 108.8-83.2 44.8-83.2 204.8-435.2 204.8-550.4-6.4-166.4-140.8-307.2-313.6-307.2z m0 889.6c-19.2 0-38.4-19.2-57.6-51.2-51.2-102.4-192-435.2-192-524.8 0-140.8 115.2-249.6 249.6-249.6 140.8 0 249.6 115.2 249.6 249.6 0 89.6-140.8 409.6-198.4 524.8-12.8 32-32 51.2-51.2 51.2z"  horiz-adv-x="1024" />

    
    <glyph glyph-name="edit" unicode="&#58928;" d="M83.2-76.8c-6.4 0-12.8 0-19.2 6.4l-6.4 6.4c-6.4 6.4-12.8 19.2-6.4 25.6 6.4 38.4 57.6 217.6 96 262.4l576 576c25.6 25.6 57.6 38.4 96 38.4s70.4-12.8 102.4-44.8l6.4-6.4c25.6-25.6 44.8-64 44.8-96 0-38.4-12.8-76.8-38.4-102.4l-576-576c-44.8-38.4-230.4-76.8-275.2-89.6 6.4 0 6.4 0 0 0z m736 864c-19.2 0-38.4-6.4-51.2-19.2l-576-576c-19.2-19.2-51.2-115.2-76.8-198.4 83.2 19.2 179.2 51.2 198.4 70.4l576 576c12.8 12.8 19.2 32 19.2 57.6s-12.8 44.8-25.6 57.6l-6.4 6.4c-12.8 12.8-32 25.6-57.6 25.6zM870.4 582.4c-6.4 0-6.4 0-12.8 6.4l-153.6 153.6c-6.4 6.4-6.4 12.8 0 19.2 6.4 6.4 12.8 6.4 19.2 0l153.6-153.6c6.4-6.4 6.4-12.8 0-19.2 0-6.4 0-6.4-6.4-6.4zM345.6 57.6c-6.4 0-6.4 0-12.8 6.4l-153.6 153.6c-6.4 6.4-6.4 12.8 0 19.2 6.4 6.4 12.8 6.4 19.2 0l153.6-153.6c6.4-6.4 6.4-12.8 0-19.2 0-6.4 0-6.4-6.4-6.4zM236.8-12.8c-6.4 0-6.4 0-12.8 6.4l-96 102.4c-6.4 6.4-6.4 12.8 0 19.2 6.4 6.4 12.8 6.4 19.2 0l96-102.4c6.4-6.4 6.4-12.8 0-19.2 0-6.4-6.4-6.4-6.4-6.4zM249.6 153.6c-6.4 0-6.4 0-12.8 6.4s-6.4 12.8 0 19.2l428.8 428.8c6.4 6.4 12.8 6.4 19.2 0 6.4-6.4 6.4-12.8 0-19.2l-428.8-428.8c6.4-6.4 0-6.4-6.4-6.4zM723.2 627.2c-6.4 0-6.4 0-12.8 6.4s-6.4 12.8 0 19.2l51.2 51.2c6.4 6.4 12.8 6.4 19.2 0 6.4-6.4 6.4-12.8 0-19.2l-51.2-51.2c0-6.4-6.4-6.4-6.4-6.4zM300.8 108.8c-6.4 0-6.4 0-12.8 6.4s-6.4 12.8 0 19.2l524.8 524.8c6.4 6.4 12.8 6.4 19.2 0 6.4-6.4 6.4-12.8 0-19.2l-524.8-524.8c0-6.4-6.4-6.4-6.4-6.4z"  horiz-adv-x="1024" />

    
    <glyph glyph-name="export" unicode="&#58929;" d="M512 166.4c-19.2 0-38.4 12.8-51.2 25.6l-108.8 147.2c-12.8 19.2-19.2 38.4-6.4 57.6 6.4 19.2 25.6 25.6 44.8 25.6h44.8v32c0 44.8 38.4 89.6 76.8 89.6s64-19.2 76.8-44.8c0-6.4 0-12.8-6.4-19.2-6.4 0-12.8 0-19.2 6.4-6.4 25.6-32 25.6-44.8 25.6-25.6 0-51.2-25.6-51.2-57.6v-44.8c0-6.4-6.4-12.8-19.2-12.8h-51.2c-6.4 0-12.8-6.4-19.2-12.8-6.4-6.4 0-19.2 6.4-25.6l108.8-147.2c12.8-19.2 38.4-19.2 51.2 0l108.8 147.2c6.4 12.8 12.8 19.2 6.4 25.6 0 6.4-6.4 12.8-19.2 12.8h-64c-6.4 0-12.8 6.4-12.8 12.8s6.4 12.8 12.8 12.8h64c19.2 0 38.4-12.8 44.8-25.6 6.4-19.2 6.4-38.4-6.4-57.6l-108.8-147.2c-19.2-12.8-38.4-25.6-57.6-25.6zM576 422.4c-6.4 0-6.4 0-12.8 6.4 0 0-6.4 6.4-6.4 12.8s0 6.4 6.4 12.8 12.8 6.4 19.2 0c0 0 6.4-6.4 6.4-12.8s0-6.4-6.4-12.8c0-6.4-6.4-6.4-6.4-6.4zM512-83.2c-256 0-467.2 211.2-467.2 467.2s211.2 467.2 467.2 467.2 467.2-211.2 467.2-467.2-211.2-467.2-467.2-467.2z m0 876.8c-224 0-409.6-185.6-409.6-409.6s185.6-409.6 409.6-409.6 409.6 185.6 409.6 409.6-185.6 409.6-409.6 409.6zM857.6 371.2c-6.4 0-12.8 6.4-12.8 12.8 0 147.2-102.4 281.6-243.2 320-6.4 0-12.8 12.8-12.8 19.2 0 6.4 12.8 12.8 19.2 12.8 160-44.8 268.8-185.6 268.8-352 0-6.4-6.4-12.8-19.2-12.8zM531.2 716.8h-19.2c-6.4 0-12.8 6.4-12.8 12.8s6.4 12.8 12.8 12.8h19.2c6.4 0 12.8-6.4 12.8-12.8s-6.4-12.8-12.8-12.8z"  horiz-adv-x="1024" />

    
    <glyph glyph-name="equalizer" unicode="&#58930;" d="M192 614.4c-12.8 0-25.6 12.8-25.6 25.6v185.6c0 12.8 12.8 25.6 25.6 25.6s32-12.8 32-25.6v-185.6c0-12.8-12.8-25.6-32-25.6zM192-89.6c-12.8 0-25.6 12.8-25.6 25.6v448c0 12.8 12.8 25.6 25.6 25.6s32-12.8 32-25.6v-448c0-12.8-12.8-25.6-32-25.6zM185.6 358.4c-83.2 0-147.2 64-147.2 147.2s64 147.2 147.2 147.2 147.2-64 147.2-147.2-64-147.2-147.2-147.2z m0 236.8c-51.2 0-89.6-38.4-89.6-89.6s38.4-89.6 89.6-89.6c51.2 0 89.6 38.4 89.6 89.6s-38.4 89.6-89.6 89.6zM217.6 537.6c-6.4 0-6.4 0 0 0h-6.4c-6.4 0-12.8 6.4-12.8 19.2 0 6.4 6.4 12.8 19.2 12.8h6.4c6.4 0 12.8-6.4 12.8-19.2-6.4-6.4-12.8-12.8-19.2-12.8zM140.8 473.6c-6.4 0-12.8 6.4-12.8 12.8 0 25.6 12.8 51.2 38.4 70.4 6.4 6.4 12.8 0 19.2-6.4 6.4-6.4 0-12.8-6.4-19.2-12.8-6.4-25.6-25.6-25.6-44.8 0-6.4-6.4-12.8-12.8-12.8zM512 358.4c-12.8 0-25.6 12.8-25.6 25.6v448c0 12.8 12.8 25.6 25.6 25.6s32-12.8 32-25.6v-448c-6.4-12.8-19.2-25.6-32-25.6zM512-89.6c-12.8 0-25.6 12.8-25.6 25.6v185.6c0 12.8 12.8 25.6 25.6 25.6s32-12.8 32-25.6v-185.6c-6.4-12.8-19.2-25.6-32-25.6zM505.6 96c-83.2 0-147.2 64-147.2 147.2s64 147.2 147.2 147.2 147.2-64 147.2-147.2-64-147.2-147.2-147.2z m0 236.8c-51.2 0-89.6-38.4-89.6-89.6s38.4-89.6 89.6-89.6c51.2 0 89.6 38.4 89.6 89.6s-38.4 89.6-89.6 89.6zM531.2 281.6h-6.4c-6.4 0-12.8 6.4-12.8 19.2 0 6.4 6.4 12.8 19.2 12.8h6.4c6.4 0 12.8-6.4 12.8-19.2-6.4-12.8-12.8-12.8-19.2-12.8zM454.4 217.6c-6.4 0-12.8 6.4-12.8 12.8 0 25.6 12.8 51.2 38.4 70.4 6.4 6.4 12.8 0 19.2-6.4 6.4-6.4 0-12.8-6.4-19.2-12.8-6.4-25.6-25.6-25.6-44.8 0-6.4-6.4-12.8-12.8-12.8zM838.4 716.8c-12.8 0-25.6 12.8-25.6 25.6v83.2c0 12.8 12.8 25.6 25.6 25.6s32-12.8 32-25.6v-83.2c0-12.8-12.8-25.6-32-25.6zM838.4-89.6c-12.8 0-25.6 12.8-25.6 25.6v544c0 12.8 12.8 25.6 25.6 25.6s32-12.8 32-25.6v-544c0-12.8-12.8-25.6-32-25.6zM838.4 454.4c-83.2 0-147.2 64-147.2 147.2s64 147.2 147.2 147.2 147.2-64 147.2-147.2-70.4-147.2-147.2-147.2z m0 243.2c-51.2 0-89.6-38.4-89.6-89.6s38.4-89.6 89.6-89.6c51.2 0 89.6 38.4 89.6 89.6s-44.8 89.6-89.6 89.6zM864 640h-6.4c-6.4 0-12.8 6.4-12.8 19.2 0 6.4 6.4 12.8 19.2 12.8h6.4c6.4 0 12.8-6.4 12.8-19.2-6.4-6.4-12.8-12.8-19.2-12.8zM787.2 576c-6.4 0-12.8 6.4-12.8 12.8 0 25.6 12.8 51.2 38.4 70.4 6.4 6.4 12.8 0 19.2-6.4 6.4-6.4 0-12.8-6.4-19.2-12.8-6.4-25.6-25.6-25.6-44.8 0-6.4-6.4-12.8-12.8-12.8z"  horiz-adv-x="1024" />

    
    <glyph glyph-name="eye" unicode="&#58931;" d="M512-12.8c-166.4 0-480 128-480 307.2s313.6 307.2 480 307.2c166.4 0 480-128 480-307.2s-313.6-307.2-480-307.2z m0 556.8c-160 0-422.4-115.2-422.4-249.6 0-134.4 262.4-249.6 422.4-249.6s422.4 115.2 422.4 249.6c0 134.4-262.4 249.6-422.4 249.6zM512 140.8c-83.2 0-153.6 70.4-153.6 153.6 0 83.2 70.4 153.6 153.6 153.6 83.2 0 153.6-70.4 153.6-153.6 0-83.2-70.4-153.6-153.6-153.6z m0 275.2c-70.4 0-121.6-57.6-121.6-121.6 0-70.4 57.6-121.6 121.6-121.6 70.4 0 121.6 57.6 121.6 121.6 0 64-51.2 121.6-121.6 121.6zM454.4 326.4c-6.4 0-6.4 0-12.8 6.4s-6.4 12.8 0 19.2l6.4 6.4c6.4 6.4 12.8 6.4 19.2 0 6.4-6.4 6.4-12.8 0-19.2l-6.4-6.4s0-6.4-6.4-6.4zM512 198.4c-51.2 0-89.6 38.4-89.6 89.6 0 6.4 6.4 12.8 12.8 12.8s12.8-6.4 12.8-12.8c0-32 25.6-64 64-64 6.4 0 12.8-6.4 12.8-12.8s-6.4-12.8-12.8-12.8zM512 640c-12.8 0-25.6 12.8-25.6 25.6v83.2c0 12.8 12.8 25.6 25.6 25.6s25.6-12.8 25.6-25.6v-83.2c0-12.8-12.8-25.6-25.6-25.6zM345.6 627.2c-12.8 0-19.2 6.4-25.6 12.8l-25.6 51.2c-6.4 12.8 0 32 12.8 38.4 12.8 6.4 32 0 38.4-12.8l25.6-51.2c6.4-12.8 0-32-12.8-38.4-6.4 6.4-12.8 0-12.8 0zM179.2 563.2c-6.4 0-12.8 6.4-19.2 6.4l-38.4 44.8c-12.8 12.8-12.8 32 0 38.4 12.8 12.8 32 12.8 38.4 0l38.4-44.8c12.8-12.8 12.8-32 0-38.4-6.4-6.4-12.8-6.4-19.2-6.4zM665.6 627.2h-12.8c-12.8 6.4-19.2 25.6-12.8 38.4l25.6 51.2c6.4 12.8 25.6 19.2 38.4 12.8 12.8-6.4 19.2-25.6 12.8-38.4l-25.6-51.2c-6.4-6.4-19.2-12.8-25.6-12.8zM832 563.2c-6.4 0-12.8 0-19.2 6.4-12.8 12.8-12.8 32 0 38.4l38.4 44.8c12.8 12.8 32 12.8 38.4 0 12.8-12.8 12.8-32 0-38.4l-38.4-44.8c0-6.4-12.8-6.4-19.2-6.4z"  horiz-adv-x="1024" />

    
    <glyph glyph-name="flash" unicode="&#58932;" d="M198.4-96c-12.8 0-19.2 6.4-25.6 12.8-12.8 19.2-6.4 38.4 0 44.8l96 345.6h-57.6c-19.2 0-38.4 6.4-51.2 25.6-6.4 19.2-6.4 38.4 0 57.6l230.4 422.4c19.2 32 57.6 51.2 89.6 51.2h339.2c25.6 0 38.4-6.4 44.8-25.6 6.4-19.2 6.4-38.4-6.4-51.2l-243.2-307.2h102.4c32 0 44.8-19.2 44.8-25.6 0-6.4 6.4-32-19.2-51.2l-518.4-480c-6.4-12.8-12.8-19.2-25.6-19.2z m121.6 390.4l-76.8-288 448 416h-83.2c-25.6 0-38.4 6.4-44.8 25.6-6.4 19.2-6.4 38.4 6.4 51.2l243.2 307.2h-320c-12.8 0-32-12.8-38.4-25.6l-230.4-416h51.2c19.2 0 38.4-6.4 51.2-25.6-6.4-6.4 0-25.6-6.4-44.8zM377.6 518.4h-6.4c-6.4 6.4-6.4 12.8-6.4 19.2l12.8 25.6c6.4 6.4 12.8 6.4 19.2 6.4 6.4-6.4 6.4-12.8 6.4-19.2l-12.8-25.6c-6.4 0-12.8-6.4-12.8-6.4z m38.4 76.8h-6.4c-6.4 6.4-6.4 12.8-6.4 19.2l64 108.8c12.8 25.6 44.8 38.4 70.4 38.4h38.4c6.4 0 12.8-6.4 12.8-12.8s-6.4-12.8-12.8-12.8h-38.4c-12.8 0-32-12.8-44.8-25.6l-64-108.8c0-6.4-6.4-6.4-12.8-6.4z"  horiz-adv-x="1024" />

    
    <glyph glyph-name="flashdrive" unicode="&#58933;" d="M320-89.6c-32 0-57.6 19.2-96 57.6l-108.8 108.8c-38.4 38.4-57.6 64-64 102.4-6.4 38.4 25.6 76.8 57.6 102.4l396.8 409.6c6.4 6.4 12.8 6.4 19.2 6.4 6.4 0 12.8 0 19.2-6.4l275.2-275.2c12.8-12.8 12.8-32 0-38.4l-396.8-409.6c-38.4-32-64-57.6-102.4-57.6z m198.4 723.2l-377.6-390.4c-25.6-25.6-38.4-44.8-38.4-57.6 0-19.2 25.6-38.4 44.8-64l108.8-108.8c19.2-19.2 44.8-44.8 57.6-44.8 12.8 0 38.4 19.2 57.6 44.8l377.6 390.4-230.4 230.4zM768 416c-6.4 0-12.8 0-19.2 6.4-12.8 12.8-12.8 32 0 38.4l128 128c12.8 12.8 38.4 38.4 38.4 51.2 0 12.8-25.6 38.4-38.4 44.8l-70.4 70.4c-19.2 19.2-38.4 38.4-51.2 38.4-12.8 0-38.4-25.6-51.2-38.4l-128-128c-12.8-12.8-32-12.8-38.4 0-12.8 12.8-12.8 32 0 38.4l128 128c32 32 57.6 57.6 89.6 57.6 32 0 57.6-19.2 89.6-51.2l70.4-70.4c76.8-76.8 64-108.8-6.4-179.2l-128-128s-6.4-6.4-12.8-6.4zM665.6 620.8c-6.4 0-6.4 0-12.8 6.4 0 0-6.4 6.4-6.4 12.8s0 6.4 6.4 12.8 12.8 6.4 19.2 0c0 0 6.4-6.4 6.4-12.8s0-6.4-6.4-12.8c0-6.4-6.4-6.4-6.4-6.4zM704 659.2c-6.4 0-6.4 0-12.8 6.4s-6.4 12.8 0 19.2l70.4 70.4c6.4 6.4 12.8 6.4 19.2 0 6.4-6.4 6.4-12.8 0-19.2l-70.4-70.4c0-6.4-6.4-6.4-6.4-6.4zM704 576c-6.4 0-6.4 0-12.8 6.4s-6.4 12.8 0 19.2l108.8 108.8c6.4 6.4 12.8 6.4 19.2 0 6.4-6.4 6.4-12.8 0-19.2l-108.8-108.8-6.4-6.4zM742.4 537.6c-6.4 0-6.4 0-12.8 6.4s-6.4 12.8 0 19.2l108.8 115.2c6.4 6.4 12.8 6.4 19.2 0 6.4-6.4 6.4-12.8 0-19.2l-108.8-115.2c0-6.4 0-6.4-6.4-6.4z"  horiz-adv-x="1024" />

    
    <glyph glyph-name="fork" unicode="&#58934;" d="M524.8 128c-76.8 0-147.2 32-204.8 83.2l-6.4 6.4c-51.2 51.2-83.2 128-83.2 204.8 0 76.8 32 153.6 83.2 204.8l147.2 147.2c12.8 12.8 32 12.8 38.4 0l377.6-377.6c6.4-6.4 6.4-12.8 6.4-19.2 0-6.4 0-12.8-6.4-19.2l-147.2-147.2c-51.2-57.6-128-83.2-204.8-83.2z m-44.8 588.8l-128-128c-44.8-44.8-70.4-102.4-70.4-166.4s25.6-121.6 64-166.4l6.4-6.4c44.8-44.8 102.4-64 160-64 64 0 121.6 25.6 166.4 70.4l128 128-326.4 332.8zM403.2 537.6c-6.4 0-6.4 0-12.8 6.4s-6.4 12.8 0 19.2l12.8 12.8c6.4 6.4 12.8 6.4 19.2 0 6.4-6.4 6.4-12.8 0-19.2l-12.8-12.8-6.4-6.4zM358.4 358.4c-6.4 0-12.8 6.4-12.8 12.8-12.8 51.2-6.4 108.8 19.2 160 6.4 6.4 12.8 6.4 19.2 6.4 6.4-6.4 6.4-12.8 6.4-19.2-25.6-38.4-32-89.6-19.2-140.8 0-6.4-6.4-19.2-12.8-19.2zM89.6-89.6c-19.2 0-32 19.2-25.6 32 0 6.4 25.6 147.2 128 198.4 70.4 38.4 96 121.6 96 121.6 6.4 12.8 19.2 25.6 38.4 19.2 12.8-6.4 25.6-19.2 19.2-32 0-6.4-32-108.8-128-160-76.8-38.4-96-153.6-96-153.6-6.4-19.2-12.8-25.6-32-25.6zM582.4 627.2c-6.4 0-12.8 0-19.2 6.4-12.8 12.8-12.8 32 0 38.4l172.8 172.8c12.8 12.8 32 12.8 38.4 0 12.8-12.8 12.8-32 0-38.4l-172.8-172.8c-6.4-6.4-12.8-6.4-19.2-6.4zM755.2 454.4c-6.4 0-12.8 0-19.2 6.4-12.8 12.8-12.8 32 0 38.4l172.8 172.8c12.8 12.8 32 12.8 38.4 0 12.8-12.8 12.8-32 0-38.4l-172.8-172.8c0-6.4-12.8-6.4-19.2-6.4z"  horiz-adv-x="1024" />

    
    <glyph glyph-name="folder" unicode="&#58935;" d="M864-32h-723.2c-57.6 0-89.6 44.8-89.6 96v633.6c0 57.6 38.4 102.4 89.6 102.4h268.8c12.8 0 25.6-6.4 25.6-19.2l32-121.6h396.8c57.6 0 108.8-44.8 108.8-102.4v-492.8c0-51.2-51.2-96-108.8-96z m-723.2 774.4c-25.6 0-32-19.2-32-44.8v-633.6c0-25.6 12.8-38.4 32-38.4h723.2c25.6 0 51.2 19.2 51.2 38.4v492.8c0 25.6-25.6 44.8-51.2 44.8h-422.4c-12.8 0-25.6 6.4-25.6 19.2l-32 121.6h-243.2zM812.8 70.4h-147.2c-6.4 0-12.8 6.4-12.8 12.8s6.4 12.8 12.8 12.8h147.2c12.8 0 32 0 32 32v51.2c0 6.4 6.4 12.8 12.8 12.8s12.8-6.4 12.8-12.8v-51.2c0-38.4-25.6-57.6-57.6-57.6zM851.2 230.4c-6.4 0-6.4 0-12.8 6.4 0 0-6.4 6.4-6.4 12.8s0 6.4 6.4 12.8 12.8 6.4 19.2 0c0 0 6.4-6.4 6.4-12.8s0-6.4-6.4-12.8c0 0 0-6.4-6.4-6.4zM896 716.8h-358.4c-12.8 0-32 12.8-32 25.6s12.8 25.6 32 25.6h358.4c12.8 0 25.6-12.8 25.6-25.6s-12.8-25.6-25.6-25.6z"  horiz-adv-x="1024" />

    
    </font>
</defs>
</svg>
